<svg data-name="Layer 1" xmlns="http://www.w3.org/2000/svg" width="1151.563" height="842.242" viewBox="0 0 1151.563 842.242"><path d="M1056.117 280.2c-22.021 0-39.873 19.811-39.873 44.25v31.05h9.55l5.528-11.504-1.382 11.504h61.38l5.027-10.458-1.257 10.458h6.911v-24.38c0-28.123-20.543-50.92-45.884-50.92z" fill="#2f2e41"/><path d="M1018.665 423.756l-6.623 25.387 61.813-2.208-1.104-20.972s-46.36-12.141-54.086-2.207zM959.06 525.305l19.868 44.151 18.765-23.179-15.453-30.906-23.18 9.934zm49.671 162.257l2.207 50.775h24.284l-3.312-50.775h-23.179z" fill="#ffb9b9"/><path d="M980.032 478.945l11.038 36.426 16.557 176.606s15.453 4.416 26.491-1.103l2.208-24.284 4.415-139.078s20.972-11.038 18.764-26.49-7.726-36.426-7.726-36.426zm34.218 247.25h-6.623s-18.764 19.868-25.387 22.076-40.84 20.972-13.246 24.283 45.256-11.038 45.256-11.038 8.83 5.52 20.972 1.104 5.519-17.66 5.519-17.66-6.164-20.188-6.393-20.028-6.853 10.093-20.098 1.263z" fill="#2f2e41"/><circle cx="1048.467" cy="323.311" r="25.387" fill="#ffb9b9"/><path d="M1085.996 356.424l-11.678 9.736-1.567 1.302-1.104 13.246h-43.048s5.872-5.089 11.325-10.354c.11-.121.232-.254.364-.375.74-.718 1.402-1.38 1.998-1.976.32-.331.63-.64.905-.927.453-.475.894-.927 1.336-1.38a.038.038 0 00.01-.022 43.08 43.08 0 003.18-3.73l.01-.012a12.818 12.818 0 00.74-1.092c3.312-5.52-4.415-16.557-4.415-16.557l24.284-12.142c.85 11.965 10.971 19.956 15.497 22.959a32.2 32.2 0 002.163 1.324z" fill="#ffb9b9"/><path d="M1145.601 541.862c-16.557 4.415-17.66-28.7-17.66-28.7l-22.598-45.194a104.515 104.515 0 01-9.736-30.32l-5.195-32.657-1.579 1.888v.01l-2.837 1.414-17.24-27.595-4.836-7.727v-8.83l16.557-7.727h6.623s.144-.022.397-.044c3.047-.32 22.871-1.645 23.887 17.705.4 7.594.365 13.886.158 18.822a145.762 145.762 0 003.85 40.632c1.168 4.794 2.443 8.958 3.718 11.189 4.415 7.726 19.868 68.435 19.868 68.435s23.18 24.283 6.623 28.699zm-101.549-173.296l-4.183 7.627-2.473 4.515-12.108 22.076s-3.433 2.803-8.996 6.424c-9.25 6.015-24.416 14.272-39.571 15.651-24.284 2.208-1.104-76.161-1.104-76.161s7.727-30.906 18.765-27.595 2.207 14.35-5.52 35.321-1.103 44.152-1.103 44.152 23.18-14.35 35.321-25.387c6.325-5.751 11.756-7.307 15.497-7.473h.011a14.055 14.055 0 013.698.287 8.35 8.35 0 011.766.563z" fill="#ffb9b9"/><path d="M1047.717 361.943c-.044.122-.563 1.104-4.526 5.133a53.271 53.271 0 004.526-5.133z" fill="#d0cde1"/><path d="M1089.86 405.543l-1.027 1.347-16.082 27.904s-20.972-7.727-36.425-9.935a21.647 21.647 0 00-22.065 9.901l4.404-17.627-2.373-7.925c-.276-.928-.596-1.954-.938-3.113-3.312-11.038 8.83-23.18 8.83-23.18l14.393-15.199h.011a14.055 14.055 0 013.698.287c-.596.596-1.258 1.258-1.998 1.976a5.755 5.755 0 00-.364.375c-4.228 4.316-2.031 5.52-.055 5.84a9.72 9.72 0 001.976.099c4.602.662 14.68-3.378 22.075-6.756a201.828 201.828 0 008.83-4.282l9.637-8.83 1.446-1.325a32.17 32.17 0 002.163 1.324h1.104s.144-.022.397-.044l-5.025 3.73a18.685 18.685 0 00-7.514 16.183z" fill="#d0cde1"/><path d="M1029.703 437.001l-16.137 6.302S925.946 409.406 912.7 437s46.36 93.823 46.36 93.823l26.49-12.142-11.038-33.114s64.02 54.086 90.511 24.284 8.83-71.943 8.83-71.943-16.556-13.05-44.151-.908zm-46.359 120.314l-9.935 7.726s8.83 35.322 5.52 40.84-9.935 20.973 2.207 19.869 25.387-19.868 26.491-26.491 8.83-26.491 8.83-26.491 13.246-30.906 3.312-32.01-25.757-1.843-25.757-1.843zm84.109-264.926a20.912 20.912 0 00-16.5-8.42h-.783c-15.094 0-27.33 13.658-27.33 30.506h5.058l.817-6.217 1.197 6.217h29.996l2.513-5.26-.628 5.26h5.9q4.131 20.513-11.869 41.025h10.052l5.026-10.519-1.256 10.52h19.162l3.77-24.195c0-18.12-10.529-33.485-25.125-38.917z" fill="#2f2e41"/><circle cx="971.034" cy="113.591" r="91" fill="#ff6584"/><path d="M747.077 538.153a1167.42 1167.42 0 00-4.188 38.571h36.56q1.995-19.38 5.005-38.571zm29.902 136.179q-1.177-19.19-.951-38.571h-37.062a1054.265 1054.265 0 00-.881 38.571zm63.217-341.628c30.477-81.195 60.336-135.786 60.336-135.786L869.44 178.42c-32.376 48.82-56.845 101.592-75.322 154.284zm-98.202 254.253a1167.29 1167.29 0 00-2.565 38.571h36.792q.532-19.285 2.252-38.571zm12.289-97.608a1121.11 1121.11 0 00-5.875 38.57h37.705q3.285-19.484 7.412-38.57zm36.322-146.412q-6.505 19.346-11.98 38.57h44.39a1235.747 1235.747 0 0113.391-38.57zm-26.842 97.608q-4.295 19.607-7.687 38.57h39.71q4.448-19.61 9.568-38.57zM738.1 684.565c.12 16.622.67 25.977.67 25.977l-.393 7.478h43.294q-2.599-16.584-3.964-33.455zm37.66-292.825q-5.326 19.466-9.699 38.572h42.1q5.53-19.779 11.542-38.571z" fill="#3f3d56"/><path d="M1086.034 232.286c-15.41-32.212-30.91-56.238-46.02-73.943l-7.89 12.123.67-20.137a158.221 158.221 0 00-16.658-15.279l-10.783 16.567.79-23.69a99.14 99.14 0 00-20.483-10.113l-7.975 12.253.483-14.51c-27.514-6.905-50.123 2.554-63.22 10.63l-7.867-1.174 13.49-5.634a99.143 99.143 0 00-6.25-21.971l-23.444-3.498 18.24-7.617a158.213 158.213 0 00-12.023-19.142l-19.928-2.972 13.348-5.575C875.826 40.55 854.99 20.968 826.087 0c0 0-2.138 18.677-3.33 44.717l19.576 20.025-20.111-5.201c-.21 7.997-.3 16.417-.202 25.008l14.437 14.768-14.2-3.673c.206 6.569.54 13.171 1.027 19.7a77.748 77.748 0 00-37.385.213l.484 14.51-7.975-12.253a99.14 99.14 0 00-20.483 10.113l.79 23.69-10.784-16.567a158.221 158.221 0 00-16.658 15.279l.67 20.137-7.89-12.123c-15.11 17.705-30.61 41.731-46.02 73.943 0 0 18.757-1.266 44.584-4.793l16.165-22.866-1.487 20.719a663.342 663.342 0 0024.634-4.314l11.921-16.863-1.05 14.63c11.76-2.542 23.555-5.52 34.697-8.99l8 7.443-14.31-2.984a99.143 99.143 0 00-7.273 21.655l17.355 16.144-19.35-4.035a158.216 158.216 0 00-.912 22.585l14.752 13.724-14.16-2.953c1.9 23.198 8.008 51.13 19.984 84.77 0 0 12.327-14.193 28.038-34.994l-4.817-27.585 13.643 15.664a663.423 663.423 0 0014.311-20.51l-3.552-20.344 9.634 11.061c9.674-15.104 18.722-30.948 25.386-46.038a385.082 385.082 0 0027.642 32.218l7.38-12.676.34 20.649a663.508 663.508 0 0017.914 17.45l10.452-17.951.46 27.999c19.344 17.473 34.122 29.093 34.122 29.093 5.432-35.293 6.174-63.875 3.675-87.017l-13.351 5.565 11.906-16.254a158.221 158.221 0 00-5.145-22.01l-18.246 7.604 8.676-11.845q5.592 1.349 11.217 2.562l-1.05-14.63 11.92 16.863a663.342 663.342 0 0024.635 4.314l-1.488-20.72 16.165 22.867c25.828 3.527 44.584 4.793 44.584 4.793z" fill="#6c63ff"/><path d="M682.298 514.464a824.158 824.158 0 012.956 27.227h-25.807q-1.409-13.68-3.533-27.227zM661.19 610.59q.83-13.546.672-27.226h26.161c.425 10.432.591 19.589.622 27.226zm-44.624-241.15c-21.513-57.313-42.59-95.848-42.59-95.848l21.948-13.058c22.854 34.462 40.126 71.713 53.168 108.907zm69.319 179.474a823.992 823.992 0 011.81 27.227h-25.97q-.375-13.614-1.59-27.227zm-8.675-68.9a791.383 791.383 0 014.148 27.227h-26.616q-2.318-13.755-5.231-27.227zm-25.638-103.35q4.591 13.656 8.457 27.227h-31.335a872.251 872.251 0 00-9.453-27.227zm18.948 68.9q3.031 13.84 5.425 27.227h-28.03q-3.14-13.843-6.754-27.227zm18.114 172.25c-.085 11.733-.473 18.336-.473 18.336l.278 5.279h-30.56q1.833-11.706 2.797-23.615zm-26.584-206.7q3.76 13.74 6.847 27.227h-29.718q-3.903-13.962-8.147-27.227z" fill="#3f3d56"/><path d="M443.034 298.558c10.877-22.738 21.818-39.698 32.484-52.195l5.57 8.557-.474-14.215a111.685 111.685 0 0111.759-10.785l7.612 11.695-.558-16.723a69.981 69.981 0 0114.459-7.138l5.63 8.649-.342-10.242c19.422-4.874 35.38 1.802 44.626 7.503l5.553-.829-9.523-3.976a69.984 69.984 0 014.413-15.51l16.549-2.469-12.876-5.376a111.68 111.68 0 018.487-13.512l14.067-2.099-9.422-3.934c10.368-12.746 25.075-26.567 45.477-41.368 0 0 1.51 13.183 2.35 31.565l-13.817 14.135 14.196-3.672c.148 5.646.212 11.59.142 17.653l-10.19 10.425 10.024-2.593a324.66 324.66 0 01-.726 13.906 54.881 54.881 0 0126.39.15l-.342 10.243 5.63-8.649a69.981 69.981 0 0114.458 7.138l-.557 16.723 7.611-11.695a111.687 111.687 0 0111.76 10.785l-.474 14.215 5.57-8.557c10.665 12.497 21.606 29.457 32.484 52.195 0 0-13.24-.894-31.471-3.384l-11.41-16.14 1.05 14.625a468.235 468.235 0 01-17.39-3.045L663.4 278.71l.741 10.327c-8.301-1.794-16.628-3.896-24.492-6.345L634 287.945l10.102-2.106a69.983 69.983 0 015.134 15.286l-12.25 11.396 13.659-2.849a111.683 111.683 0 01.643 15.943l-10.413 9.687 9.995-2.084c-1.341 16.375-5.653 36.092-14.106 59.838 0 0-8.701-10.019-19.792-24.702l3.4-19.472-9.63 11.057a468.246 468.246 0 01-10.102-14.477l2.507-14.36-6.8 7.807a247.601 247.601 0 01-17.92-32.498 271.823 271.823 0 01-19.511 22.742l-5.21-8.947-.24 14.575a468.36 468.36 0 01-12.645 12.318l-7.378-12.672-.325 19.765c-13.655 12.334-24.086 20.536-24.086 20.536-3.834-24.912-4.358-45.088-2.594-61.423l9.424 3.928-8.404-11.474a111.686 111.686 0 013.632-15.537l12.88 5.368-6.125-8.36q-3.948.95-7.918 1.807l.742-10.327-8.415 11.904a468.242 468.242 0 01-17.39 3.045l1.05-14.626-11.41 16.141c-18.231 2.49-31.47 3.384-31.47 3.384z" fill="#6c63ff"/><ellipse cx="379.534" cy="720.591" rx="147.5" ry="14" fill="#3f3d56"/><ellipse cx="734.534" cy="720.591" rx="147.5" ry="14" fill="#3f3d56"/><path d="M846.534 578.09s10.65 73.95-40.48 117.67c-33.09 28.29-80.27 32.92-118.99 13.01-14.38-7.39-29.72-18.62-44.37-35.57a191.084 191.084 0 01-15.26-20.3 242.485 242.485 0 01-17.73-32.37q-4.8-10.484-9.17-22.44c-.56-1.53-1.08-3.03-1.58-4.52-26.55-78.91 25.09-101.93 72.49-107.45a243.45 243.45 0 0129.96-1.51 268.643 268.643 0 0135.13 2.48s.97.01 2.72.08a210.987 210.987 0 0126.93 2.99c36.62 6.43 92.67 26.35 80.35 87.93zm-326 20c-23.34 64.07-56.95 95.47-86.53 110.68-38.72 19.91-85.9 15.28-118.99-13.01a104.523 104.523 0 01-9-8.67 108.9 108.9 0 01-15.01-20.66 128.655 128.655 0 01-12.09-30.09 161.537 161.537 0 01-5.17-35.23 140.936 140.936 0 01.79-23.02c-11.53-57.65 36.85-78.78 73.12-86.52a215.325 215.325 0 0131.83-4.29c3.21-.18 5.05-.19 5.05-.19a276.079 276.079 0 0157.57-1.71c50.09 4.04 110.08 25.84 78.43 112.71z" fill="#6c63ff"/><path d="M379.484 487.28l-100.57 149.06a161.537 161.537 0 01-5.17-35.23l73.91-109.54a215.325 215.325 0 0131.83-4.29zm62.62-1.9l-136.09 201.71a108.9 108.9 0 01-15.01-20.66l122.6-181.71a262.514 262.514 0 0128.5.66zm259.3-.77l-91.7 135.92q-4.8-10.484-9.17-22.44c-.56-1.53-1.08-3.03-1.58-4.52l72.49-107.45a243.45 243.45 0 0129.96-1.51zm64.78 5.55L642.694 673.2a191.084 191.084 0 01-15.26-20.3l111.82-165.73a210.987 210.987 0 0126.93 2.99z" fill="#fff" opacity=".2"/><path d="M870.534 571.09h-22.888c10.13-83.039-111.112-84-111.112-84a276.474 276.474 0 00-58-1.67v-.33h-237v.25a276.758 276.758 0 00-57 1.75s-121.242.961-111.113 84h-21.887v22h22.087c-.222 23.902 4.522 71.144 41.393 102.67 33.09 28.29 80.27 32.92 118.99 13.01 29.58-15.21 63.19-46.61 86.53-110.68 7.996-21.95 10.14-39.743 8.073-54.147a635.392 635.392 0 0163.854 0c-2.067 14.404.077 32.198 8.073 54.148 23.34 64.07 56.95 95.47 86.53 110.68 38.72 19.91 85.9 15.28 118.99-13.01 36.87-31.527 41.614-78.77 41.393-102.67h23.087zm-360.54 27.41c-22.21 60.97-54.61 89.49-82.4 102.65-33.81 16.01-74.1 11.56-103.12-12.03-35.08-28.52-39.75-72.35-39.62-94.69.06-8.88-.34-17.74-.69-26.61-2.77-69.71 101.83-70.53 101.83-70.53s170.51-26.44 124 101.21zm83.389-59.565a424.547 424.547 0 00-65.699 0c-5.486-24.486-23.977-38.287-45.937-45.844H639.32c-21.96 7.557-40.45 21.358-45.937 45.844zm244.6 28.566c-.36 8.95-.76 17.9-.7 26.85.14 22.55-4.58 66.79-39.98 95.56-29.28 23.81-69.92 28.31-104.03 12.17-28.06-13.27-60.78-42.05-83.21-103.62-46.93-128.83 125.15-102.14 125.15-102.14s105.56.82 102.77 71.18z" fill="#3f3d56"/><path d="M403.925 712.834c-.113-.185-2.783-4.644-3.709-13.903-.85-8.494-.303-22.812 7.122-42.784 14.067-37.836-3.242-68.364-3.418-68.668l.854-.495a75.781 75.781 0 017.15 20.254 88.364 88.364 0 01-3.66 49.253c-14.044 37.772-3.603 55.652-3.496 55.829z" fill="#3f3d56"/><circle cx="398.425" cy="578.842" r="6.415" fill="#3f3d56"/><circle cx="418.658" cy="602.529" r="6.415" fill="#3f3d56"/><circle cx="404.84" cy="618.321" r="6.415" fill="#fff"/><circle cx="421.618" cy="631.645" r="6.415" fill="#fff"/><circle cx="399.905" cy="652.371" r="6.415" fill="#3f3d56"/><path d="M407.8 713.07s-6.414-15.792 12.831-27.635zm-7.889-.287s-2.92-16.793-25.517-16.649z" fill="#3f3d56"/><path d="M338.854 341.23a6.355 6.355 0 01-2.83 5.21l-.24.15h-106.8l.43-1.31c.07-.23 7.89-22.92 42.5-18.54 3.26-1.12 35.12-11.52 54.19.17 8.46 5.18 12.75 10 12.75 14.32zm198 77a6.355 6.355 0 01-2.83 5.21l-.24.15h-106.8l.43-1.31c.07-.23 7.89-22.92 42.5-18.54 3.26-1.12 35.12-11.52 54.19.17 8.46 5.18 12.75 10 12.75 14.32zm45-310a6.355 6.355 0 01-2.83 5.21l-.24.15h-106.8l.43-1.31c.07-.23 7.89-22.92 42.5-18.54 3.26-1.12 35.12-11.52 54.19.17 8.46 5.18 12.75 10 12.75 14.32z" fill="#f1f1f1"/><path d="M28.96 624.004l9.136 28.282s-8.266 26.541-4.35 56.128 1.74 30.457 1.74 30.457-39.126-2.252-35.21 9.496 42.171 4.863 42.171 4.863 7.348-1.979 10.828-22.863 12.233-61.112 12.233-61.112l-8.23-37.975z" fill="#ffb8b8"/><path d="M32.005 566.136s-16.534 6.091-16.534 22.625 6.092 39.16 10.007 40.465 30.022 19.144 34.809 6.526-28.282-69.616-28.282-69.616z" fill="#d0cde1"/><path fill="#ffb8b8" d="M170.367 761.932l34.808-1.306 26.542-3.916-7.832 26.106-64.395 1.741 10.877-22.625z"/><path d="M220.404 765.412s-.435-9.572-4.351-9.137-1.305-3.48 2.175-4.35 13.489-5.222 13.489-5.222l39.594 2.61s25.67 22.626 15.228 34.809-37.418 1.305-37.418 1.305l-29.152.435s-9.572-15.663.435-20.45z" fill="#2f2e41"/><path fill="#ffb8b8" d="M236.068 731.91l12.617 59.173 26.107-5.221-14.794-73.967-15.664-8.267-8.266 28.282z"/><path d="M85.958 724.513s-73.097 33.068-42.205 66.57c0 0 0 15.664 32.632 12.618s95.723-8.702 98.768-6.961 12.618-34.373 4.351-36.114-18.274-3.916-18.274-3.916 8.702-1.305 8.702-8.702c0 0 24.8-1.74 32.198-17.404s14.358-27.411 14.358-27.411l16.969 43.51s19.58-36.113 34.373-20.015c0 0-16.534-103.989-29.152-113.561s-21.32-12.618-33.068-3.916-22.625 30.892-22.625 30.892zm174.475 48.731a98.036 98.036 0 00-8.702 7.397c-3.48 3.48-8.267 1.74-8.702 0s-8.267 1.305-9.137 13.923-6.091 23.93 7.832 27.847 13.488 15.228 13.488 15.228a46.934 46.934 0 0035.243 2.176c19.58-6.527 12.618-13.488 12.618-13.488l-26.106-43.075s-6.962-13.053-16.534-10.008z" fill="#2f2e41"/><path d="M188.206 557.434s41.77 14.358 46.121 17.404 23.93 17.404 14.358 24.8-17.404 12.184-36.113 6.527-39.594-23.06-39.594-23.06z" fill="#ffb8b8"/><path d="M146.437 538.29s16.534-3.046 28.281 3.48 21.755 19.58 21.755 19.58-10.877 23.06-18.71 26.541-22.19-13.923-22.19-13.923z" fill="#d0cde1"/><path d="M70.294 525.672s.435 16.969-1.305 18.709 20.884 53.082 45.685 30.457 5.657-31.762 5.657-31.762-9.138-16.97-8.702-18.71-40.465 0-40.465 0z" fill="#ffb8b8"/><path d="M70.294 525.672s.435 16.969-1.305 18.709 20.884 53.082 45.685 30.457 5.657-31.762 5.657-31.762-9.138-16.97-8.702-18.71-40.465 0-40.465 0z" opacity=".1"/><path d="M77.256 558.304s16.533 11.313 23.495 8.702 15.664-13.923 16.534-14.793 45.25 88.325 45.25 88.325-6.526 32.633-23.93 42.205-17.187 17.187-19.362 23.713-30.24-20.667-30.24-20.667L71.164 610.08v-46.12z" fill="#d0cde1"/><path d="M70.076 538.072s-5.438-1.088-11.095 3.698-32.197 22.626-30.892 24.366 13.053 26.541 15.664 36.549 6.526 11.312 6.526 11.312 9.137 6.527 7.832 11.313-6.962 70.051.87 84.41 6.527 26.976 4.351 30.457 20.885-10.008 20.885-10.008 34.373-27.846 36.984-36.113a97.263 97.263 0 003.48-17.404s-22.19-87.89-29.151-92.677-25.454-45.903-25.454-45.903zm47.8.344s10.722-6.653 12.897-4.913 22.625 1.74 23.06 3.481 1.306 43.51 16.1 54.388 5.22 32.632 5.22 32.632l10.878 17.405s-59.173 56.993-55.258 37.418c.218-1.087 0-1.305 0-1.305s-23.06-98.768-20.015-103.99 8.58-28.898 7.118-35.116z" fill="#575a89"/><path d="M209.091 578.319l-59.174 20.45s-58.738 13.923-49.601 30.022 47.861-11.313 47.861-11.313l78.8-8.83s31.28-26.413-17.886-30.33z" fill="#ffb8b8"/><circle cx="93.789" cy="509.573" r="32.197" fill="#ffb8b8"/><path d="M68.148 477.574l-5.955-2.166s12.453-12.453 29.779-11.37l-4.873-4.873s11.912-4.331 22.74 7.039c5.693 5.977 12.28 13.003 16.385 20.917h6.378l-2.662 5.324 9.318 5.324-9.564-.956a26.866 26.866 0 01-.904 13.789l-2.166 5.956s-8.663-17.326-8.663-19.492v5.414s-5.956-4.873-5.956-8.121l-3.249 3.79-1.624-5.956-20.033 5.956 3.248-4.873-12.453 1.624 4.873-5.956s-14.077 7.04-14.619 12.995-7.58 13.536-7.58 13.536l-3.248-5.415s-4.873-24.364 10.828-32.486z" fill="#2f2e41"/><path d="M122.397 511.32s1.058 7.346-4.021 11.69a10.682 10.682 0 01-11.822 1.292 14.73 14.73 0 01-4.408-3.534 18.984 18.984 0 01-1.516-2.016 24.09 24.09 0 01-1.761-3.216q-.477-1.042-.911-2.23a17.592 17.592 0 01-.157-.448c-2.638-7.84 2.493-10.127 7.202-10.675a24.187 24.187 0 012.976-.15 26.69 26.69 0 013.49.246s.097.001.27.008a20.962 20.962 0 012.676.297c3.638.639 9.206 2.618 7.982 8.736zm-32.387 1.987c-2.319 6.365-5.658 9.484-8.596 10.995a10.682 10.682 0 01-11.822-1.292 10.384 10.384 0 01-.894-.862 10.819 10.819 0 01-1.491-2.052 12.781 12.781 0 01-1.201-2.99 16.048 16.048 0 01-.514-3.5 14.003 14.003 0 01.079-2.286c-1.146-5.728 3.66-7.827 7.264-8.596a21.39 21.39 0 013.162-.426c.32-.018.502-.02.502-.02a27.428 27.428 0 015.72-.169c4.976.401 10.936 2.567 7.791 11.198z" fill="#6c63ff"/><path d="M75.997 502.298l-9.991 14.809a16.048 16.048 0 01-.514-3.5l7.343-10.883a21.39 21.39 0 013.162-.426zm6.221-.188l-13.52 20.038a10.819 10.819 0 01-1.491-2.052l12.18-18.052a26.08 26.08 0 012.831.065zm25.762-.077l-9.111 13.503q-.477-1.042-.911-2.23a17.592 17.592 0 01-.157-.448l7.202-10.675a24.187 24.187 0 012.976-.15zm6.435.551l-12.269 18.185a18.984 18.984 0 01-1.516-2.017l11.11-16.465a20.962 20.962 0 012.675.297z" fill="#fff" opacity=".2"/><path d="M124.782 510.624h-2.274c1.006-8.25-11.039-8.345-11.039-8.345a27.467 27.467 0 00-5.762-.166v-.033H82.162v.025a27.495 27.495 0 00-5.663.174s-12.045.095-11.039 8.345h-2.174v2.186h2.194c-.022 2.374.45 7.068 4.112 10.2a10.682 10.682 0 0011.822 1.292c2.938-1.51 6.277-4.63 8.596-10.995a11.229 11.229 0 00.802-5.38 63.125 63.125 0 016.344 0 11.229 11.229 0 00.802 5.38c2.319 6.365 5.658 9.484 8.596 10.995a10.682 10.682 0 0011.822-1.292c3.663-3.132 4.134-7.826 4.112-10.2h2.294zm-35.819 2.723c-2.206 6.057-5.425 8.89-8.186 10.198a9.691 9.691 0 01-10.245-1.195c-3.485-2.833-3.949-7.188-3.936-9.407.006-.882-.034-1.763-.069-2.644-.275-6.925 10.117-7.007 10.117-7.007s16.94-2.626 12.32 10.055zm8.285-5.917a42.179 42.179 0 00-6.527 0c-.545-2.433-2.383-3.804-4.564-4.555h15.654c-2.181.75-4.018 2.122-4.563 4.555zm24.3 2.837c-.036.89-.076 1.779-.07 2.668.014 2.24-.455 6.635-3.971 9.494a9.778 9.778 0 01-10.336 1.209c-2.787-1.319-6.038-4.178-8.266-10.295-4.663-12.799 12.433-10.147 12.433-10.147s10.487.081 10.21 7.071z" fill="#3f3d56"/></svg>