<svg data-name="Layer 1" xmlns="http://www.w3.org/2000/svg" width="1077.87" height="818.139" viewBox="0 0 1077.87 818.139"><path d="M663.824 91.843c-46.252 32.384-106.242 30.287-158.813 13.44S404.154 58.436 352.925 37.114A494.187 494.187 0 00219.316 2.281C154.039-5.187 81.138 3.911 35.653 56.262c-50.65 58.297-46.762 163.448 8.024 216.968 27.865 27.222 64.354 40.58 96.176 61.836s61.278 56.545 58.568 97.57c-2.51 37.979-31.677 67.12-61.86 85.404-23.33 14.133-52.066 29.566-54.878 58.835-2.72 28.321 21.438 50.512 44.508 63.133 75.263 41.172 167.99 40.776 242.964-1.038 26.75-14.92 51.338-34.756 79.391-46.384 73.65-30.527 154.808.204 232.796 11.44a465.44 465.44 0 00198.003-14.412c38.623-11.409 77.39-28.849 104.522-61.338 19.565-23.429 31.754-53.077 43.197-82.357q18.305-46.838 35.189-94.334c6.757-19.008 13.406-38.385 15.151-58.72 3.164-36.856-10.159-73.28-28.3-104.385-43.07-73.843-115.61-125.766-194.127-138.957s-161.713 12.571-222.644 68.942" fill="#6c63ff" opacity=".1"/><path d="M908.139 538.05l-2.788-1.612c2.606-4.506-4.388-23.686-10.162-33.344-4.005-6.7-6.518-12.792-7.682-18.623-1.853-9.284-.093-17.334 5.232-23.925 11.048-13.675 10.952-39.778 10.95-40.04l3.22-.029c.01 1.117.113 27.514-11.665 42.093-7.829 9.69-6.917 22.769 2.709 38.872 4.537 7.589 14.227 29.62 10.186 36.608z" fill="#d4d5e0"/><path d="M943.412 392.73c.731-26.153-16.468-47.852-38.415-48.465s-40.33 20.091-41.061 46.244c-.71 25.393 15.484 46.584 36.514 48.356a13.887 13.887 0 01-3.258 7.15c-3.189 3.256 10.028.28 10.028.28a23.48 23.48 0 01-1.425-7.404c20.394-1.51 36.925-21.39 37.617-46.161z" fill="#6c63ff"/><path d="M875.509 410.19c-3.25-9.952-.253-19.945 6.69-22.946-.322.073-.641.16-.958.264-7.6 2.481-11.01 12.912-7.618 23.298 3.293 10.084 11.788 16.416 19.234 14.505.152.79-14.06-5.054-17.348-15.121z" fill="#fff" opacity=".2"/><path d="M924.636 574.285l3.217.136c.22-5.2 16.414-17.63 26.47-22.681 6.975-3.504 12.365-7.295 16.476-11.59 6.547-6.84 9.382-14.577 8.426-22.997-1.983-17.467 12.108-39.441 12.25-39.66l-2.701-1.753c-.608.936-14.862 23.154-12.749 41.777 1.405 12.378-6.383 22.924-23.148 31.346-7.9 3.968-27.901 17.357-28.241 25.422z" fill="#d4d5e0"/><path d="M972.864 432.736c13.42-22.46 39.577-31.538 58.425-20.276s23.247 38.597 9.828 61.056c-13.03 21.807-38.067 30.997-56.763 21.205a13.887 13.887 0 00-1.088 7.782c.943 4.459-8.611-5.145-8.611-5.145a23.48 23.48 0 005.176-5.483c-16.398-12.22-19.678-37.866-6.967-59.14z" fill="#6c63ff"/><path d="M1020.79 483.912c8.083-6.654 10.917-16.694 6.67-22.952.231.234.454.479.666.736 5.08 6.173 2.36 16.805-6.076 23.747-8.19 6.742-18.757 7.526-24.014 1.916-.552.586 14.576 3.282 22.753-3.447z" fill="#fff" opacity=".2"/><path d="M352.697 704.078l-3.217.135c-.22-5.2-16.414-17.63-26.47-22.68-6.975-3.505-12.365-7.296-16.477-11.591-6.546-6.84-9.38-14.577-8.425-22.996 1.982-17.467-12.108-39.442-12.25-39.662l2.701-1.752c.608.937 14.862 23.155 12.748 41.777-1.404 12.378 6.384 22.925 23.149 31.346 7.9 3.968 27.901 17.357 28.241 25.423z" fill="#d4d5e0"/><path d="M304.469 562.528c-13.42-22.46-39.577-31.537-58.425-20.276s-23.247 38.597-9.828 61.057c13.03 21.806 38.067 30.996 56.762 21.205a13.887 13.887 0 011.089 7.782c-.943 4.458 8.611-5.146 8.611-5.146a23.48 23.48 0 01-5.176-5.483c16.398-12.22 19.677-37.865 6.967-59.139z" fill="#6c63ff"/><path d="M256.544 613.704c-8.084-6.653-10.918-16.693-6.67-22.951-.232.234-.455.478-.667.736-5.08 6.172-2.36 16.804 6.076 23.747 8.19 6.741 18.757 7.525 24.014 1.916.552.585-14.576 3.282-22.753-3.448z" fill="#fff" opacity=".2"/><path d="M458.697 366.078l-3.217.135c-.22-5.2-16.414-17.63-26.47-22.68-6.975-3.505-12.365-7.296-16.477-11.591-6.546-6.84-9.38-14.577-8.425-22.996 1.982-17.467-12.108-39.442-12.25-39.662l2.701-1.752c.608.937 14.862 23.155 12.748 41.777-1.404 12.378 6.384 22.925 23.149 31.346 7.9 3.968 27.901 17.357 28.241 25.423z" fill="#d4d5e0"/><path d="M410.469 224.528c-13.42-22.46-39.577-31.537-58.425-20.276s-23.247 38.597-9.828 61.057c13.03 21.806 38.067 30.996 56.762 21.205a13.887 13.887 0 011.089 7.782c-.943 4.458 8.611-5.146 8.611-5.146a23.48 23.48 0 01-5.176-5.483c16.398-12.22 19.677-37.865 6.967-59.139z" fill="#6c63ff"/><path d="M362.544 275.704c-8.084-6.653-10.918-16.693-6.67-22.951-.232.234-.455.478-.667.736-5.08 6.172-2.36 16.804 6.076 23.747 8.19 6.741 18.757 7.525 24.014 1.916.552.585-14.576 3.282-22.753-3.448z" fill="#fff" opacity=".2"/><path d="M421.697 509.078l-3.217.135c-.22-5.2-16.414-17.63-26.47-22.68-6.975-3.505-12.365-7.296-16.477-11.591-6.546-6.84-9.38-14.577-8.425-22.996 1.982-17.467-12.108-39.442-12.25-39.662l2.701-1.752c.608.937 14.862 23.155 12.748 41.777-1.404 12.378 6.384 22.925 23.149 31.346 7.9 3.968 27.901 17.357 28.241 25.423z" fill="#d4d5e0"/><path d="M373.469 367.528c-13.42-22.46-39.577-31.537-58.425-20.276s-23.247 38.597-9.828 61.057c13.03 21.806 38.067 30.996 56.762 21.205a13.887 13.887 0 011.089 7.782c-.943 4.458 8.611-5.146 8.611-5.146a23.48 23.48 0 01-5.176-5.483c16.398-12.22 19.677-37.865 6.967-59.139z" fill="#6c63ff"/><path d="M325.544 418.704c-8.084-6.653-10.918-16.693-6.67-22.951-.232.234-.455.478-.667.736-5.08 6.172-2.36 16.804 6.076 23.747 8.19 6.741 18.757 7.525 24.014 1.916.552.585-14.576 3.282-22.753-3.448z" fill="#fff" opacity=".2"/><path d="M865.63 698.325l-2.044-2.49c4.023-3.302 4.214-23.716 2.202-34.787-1.397-7.681-1.609-14.267-.65-20.135 1.527-9.344 6.003-16.262 13.305-20.562 15.147-8.921 24.229-33.394 24.319-33.64l3.025 1.104c-.383 1.049-9.561 25.8-25.71 35.31-10.735 6.323-14.476 18.888-11.122 37.347 1.582 8.698 2.914 32.73-3.325 37.853z" fill="#d4d5e0"/><path d="M949.712 574.662c9.873-24.229 1.394-50.587-18.938-58.872s-44.819 4.64-54.691 28.87c-9.586 23.524-1.87 49.054 17.197 58.102a13.887 13.887 0 01-5.563 5.55c-4.13 1.928 9.29 3.785 9.29 3.785a23.48 23.48 0 011.268-7.433c19.624 5.752 42.086-7.053 51.437-30.002z" fill="#6c63ff"/><path d="M880.003 567.152c.454-10.46 6.77-18.763 14.325-19.133a10.759 10.759 0 00-.99-.09c-7.986-.346-14.844 8.222-15.317 19.137-.46 10.598 5.269 19.511 12.912 20.338-.136.793-11.389-9.672-10.93-20.252z" fill="#fff" opacity=".2"/><ellipse cx="605.483" cy="706.711" rx="302.444" ry="22.476" fill="#6c63ff" opacity=".1"/><path fill="#53425a" d="M580.006 121.167v35.329h3.704v-37.038l-3.704 1.709zm75.786 9.402v32.765h5.129l-1.14-36.469-3.989 3.704zm-145.873 6.268l-3.419 3.704v31.91h3.419v-35.614z"/><path d="M524.164 230.855h-22.223V167.04h17.095a8.56 8.56 0 00-.393 1.512c-.667 3.667-.462 10.582.162 18.505 1.487 18.992 5.36 43.797 5.36 43.797zm77.498 0l-27.924 3.419v-83.191h17.668c-.12.94-.197 2.008-.24 3.196a140.553 140.553 0 001.103 18.779c.598 5.419 1.385 11.24 2.248 17.026a746.636 746.636 0 002.094 13.197 969.627 969.627 0 005.051 27.574zm75.217-8.548l-27.352 2.283v-66.67h18.804c-.666 1.42-.957 3.813-.966 6.856a122.576 122.576 0 001.47 16.419c2.667 18.676 8.044 41.112 8.044 41.112z" fill="#6c63ff"/><path d="M514.477 72.163s1.71 6.838-16.24 25.642-10.826 56.697 8.263 55.557c0 0 17.845 2.944 24.265-9.205a16.268 16.268 0 00-1.14-16.67c-5.898-8.686-17.275-26.942-15.148-35.665z" fill="#ffc13d"/><path d="M510.868 98.004s1.068 4.271-10.143 16.016-6.762 35.413 5.16 34.701c0 0 11.396 1.88 15.288-6.006a10.182 10.182 0 00-.856-10.173c-3.481-5.13-9.995-15.563-9.594-21.293.062-.896.145-1.79.145-2.688z" fill="#fff" opacity=".5"/><path d="M662.614 63.587s1.71 6.838-16.24 25.642-10.826 56.697 8.263 55.557c0 0 17.845 2.944 24.265-9.205a16.268 16.268 0 00-1.14-16.67c-5.898-8.686-17.275-26.942-15.148-35.665z" fill="#ffc13d"/><path d="M660.35 104.343s.8 3.2-7.601 12.001-5.067 26.535 3.867 26.002c0 0 8.352 1.377 11.356-4.309a7.614 7.614 0 00-.533-7.801c-2.76-4.066-8.085-12.61-7.09-16.692z" fill="#fff" opacity=".5"/><path d="M587.036 38.857s2.078 8.315-19.748 31.18-13.165 68.944 10.047 67.559c0 0 21.7 3.579 29.506-11.194a19.782 19.782 0 00-1.385-20.27c-7.173-10.563-21.007-32.763-18.42-43.37z" fill="#ffc13d"/><path d="M584.747 80.128s1.16 4.64-11.018 17.397-7.345 38.465 5.606 37.692c0 0 12.107 1.997 16.462-6.245a11.037 11.037 0 00-.773-11.31c-4.002-5.893-11.72-18.278-10.277-24.197zm-65.942 106.93c-5.222 5.496-12.436 15.334-16.864 21.565v-22.548c4.88-5.88 11.872-12.863 16.702-17.522-.667 3.667-.462 10.582.162 18.505zm73.464-14a199.173 199.173 0 00-18.53 16.855v-21.556a99.762 99.762 0 0117.427-14.078 140.553 140.553 0 001.103 18.779z" fill="#fff" opacity=".5"/><path d="M596.611 203.281c-6.863 6.017-16.308 14.573-22.873 20.54v-15.429c6.855-6.308 15.24-13.573 20.779-18.308a746.682 746.682 0 002.094 13.197z" fill="#6c63ff"/><path d="M668.836 181.195c-6.59 5.521-14.232 13.111-19.309 18.334v-21.497c5.394-5.367 12.548-10.111 17.839-13.256a122.576 122.576 0 001.47 16.419z" fill="#fff" opacity=".5"/><path fill="#c99398" d="M453.794 246.24h278.924v127.645H453.794z"/><path d="M732.718 246.24v19.214c-5.333 1.034-12.325-.564-18.18-2.521a24.17 24.17 0 00-20.907 2.632c-16.069 10.505-28.616 8.283-37.368 3.06a32.191 32.191 0 00-29.13-2.248 31.627 31.627 0 01-12.915 2.368 27.267 27.267 0 00-14.658 4.043c-13.197 7.991-26.351 3.367-34.617-1.462a24.4 24.4 0 00-17.898-2.581 25.785 25.785 0 01-7.949.65 29.825 29.825 0 00-17.556 3.786c-21.787 12.727-28.984-2.727-33.274-5-4.847-2.564-5.41 6.265-6.838 6.265s-6.265-11.676-7.41-7.693c-.53 1.872-5.018 4.12-9.634 5.983a19.218 19.218 0 01-10.59 1.094v-27.59z" opacity=".1"/><path d="M464.908 220.792s-45.714 20.4-21.32 45.89a18.997 18.997 0 0020.798 4.343c4.612-1.859 9.1-4.107 9.634-5.978 1.14-3.99 5.983 7.692 7.408 7.692s1.994-8.832 6.837-6.268c4.29 2.272 11.487 17.731 33.27 4.998a29.88 29.88 0 0117.565-3.784 25.574 25.574 0 007.943-.65 24.428 24.428 0 0117.901 2.579c8.265 4.83 21.421 9.453 34.614 1.468a27.26 27.26 0 0114.663-4.049 31.465 31.465 0 0012.91-2.37 32.237 32.237 0 0129.133 2.25c8.752 5.228 21.302 7.447 37.367-3.055a24.144 24.144 0 0120.903-2.639c11.684 3.914 27.919 6.41 26.446-10.703-2.279-26.496-33.619-34.189-46.725-34.474s-34.759-2.564-59.26 0-74.362 2.28-74.362 2.28-83.72-3.325-95.725 2.47z" fill="#f8f8fa"/><path fill="#c99398" d="M396.809 373.885h397.877v156.27H396.809z"/><path d="M732.718 347.226v26.66H577.61q-.397-.052-.795-.078a20.868 20.868 0 00-3.94.077h-119.08v-23.77c12.974 1.581 26.06 3.59 38.958 3.539 17.12-.077 34.035-3.633 51.19-2.676 59.976 3.334 121.046 4.325 180.783-2.778 2.659-.316 5.325-.65 7.992-.974z" opacity=".1"/><path d="M794.686 373.885v14.095c-4.325-.547-8.487-2.274-12.667-3.642-3.77-1.23-7.846-2.188-11.676-1.17-2.017.538-3.854 1.598-5.846 2.213-8.325 2.599-17.01-2.812-25.736-2.846-8.65-.034-16.385 5.18-24.83 7.077-13.052 2.932-26.394-2.214-38.899-6.983-5.06-1.923-10.923-3.76-15.65-1.128-2.077 1.154-3.64 3.051-5.667 4.299-5.923 3.658-13.675.803-19.581-2.889-3.736-2.333-8.257-5.077-12.197-3.111-2.035 1.008-3.308 3.051-4.992 4.564-5.334 4.778-13.727 3.496-20.266.59-6.53-2.906-12.735-7.197-19.864-7.727-10.051-.76-18.855 6.017-27.624 10.983s-20.933 7.907-28.087.795c-2.367-2.35-4.12-5.752-7.36-6.564-5.358-1.333-9.384 5.3-14.786 6.462-6.658 1.436-12.077-5.65-18.753-7.043-6.906-1.445-13.333 3.359-19.428 6.906s-14.949 5.547-19.368.051c-1.41-1.752-2.18-4.111-4.111-5.274a8.24 8.24 0 00-4.752-.76 48.29 48.29 0 00-16.762 4.008c-6.085 2.684-11.974 6.71-18.616 6.582-.12 0-.239-.009-.359-.017v-19.47z" opacity=".1"/><path d="M492.75 355.363c-30.52.129-62.043-11.314-90.817-1.138-10.44 3.693-21.03 12.43-19.929 23.449a16.082 16.082 0 0015.162 13.991c6.646.129 12.534-3.901 18.616-6.582a48.239 48.239 0 0116.767-4.013 8.289 8.289 0 014.753.767c1.928 1.157 2.7 3.522 4.11 5.274 4.42 5.495 13.27 3.494 19.365-.054s12.526-8.353 19.43-6.91c6.67 1.393 12.09 8.483 18.75 7.046 5.4-1.164 9.426-7.792 14.786-6.458 3.245.808 4.993 4.207 7.364 6.565 7.148 7.106 19.312 4.168 28.082-.8s17.572-11.741 27.623-10.986c7.134.535 13.334 4.828 19.87 7.732s14.933 4.184 20.261-.589c1.69-1.513 2.963-3.56 4.993-4.57 3.94-1.96 8.463.784 12.194 3.115 5.908 3.69 13.663 6.548 19.59 2.887 2.018-1.247 3.587-3.144 5.66-4.298 4.728-2.633 10.596-.796 15.652 1.132 12.502 4.768 25.85 9.914 38.903 6.978 8.437-1.897 16.18-7.106 24.828-7.074 8.722.032 17.408 5.444 25.736 2.848 1.989-.62 3.827-1.677 5.84-2.213 3.836-1.022 7.908-.066 11.68 1.168 5.007 1.637 9.991 3.792 15.258 3.808s11.028-2.86 12.288-7.975c.965-3.915-.914-7.972-3.259-11.252-8.515-11.91-23.279-18.04-37.829-19.67s-29.212.645-43.751 2.372c-59.739 7.098-120.811 6.11-180.782 2.775-17.154-.954-34.071 2.602-51.194 2.675z" fill="#f8f8fa"/><path fill="#c99398" d="M369.885 516.052h439.938v181.203H369.885z"/><path d="M811.772 511.086a519.324 519.324 0 01-66.729 9.915 45.844 45.844 0 00-22.513 1.718 7.679 7.679 0 00-.41.137c-13.864 4.906-25.796 16.539-40.498 16.35-11.735-.153-21.88-7.905-33.155-11.153a42.231 42.231 0 00-9.897-1.616 43.425 43.425 0 00-6.83.188c-13.633.36-27.265.505-40.898.223-20.001-.402-39.959-1.727-59.917-3.043l-64.002-4.231-60.216-3.975q-7.385-.487-14.787-.983c-5.307-.35-9.248.795-11.393-3.949-2.547-5.675-.3-11.325 2.82-16.265 2.684.051 5.377.24 8.052.427q60.976 4.295 121.927 8.89l-6.248 1.102a682.061 682.061 0 01128.363-7.94c20.044.658 40.198 2.196 60.096-.36 13.984-1.794 27.685-5.59 41.737-6.777 19.3-1.633 38.642 1.7 57.737 5.025a116.104 116.104 0 0111.932 2.53c1.017 4.89 2.154 9.77 4.83 13.787z" opacity=".1"/><path d="M809.823 516.052v17.035c-5.487-.812-10.863-1.615-14.197 2.282-1.564 1.838-2.17 4.334-3.692 6.214-3.137 3.872-9.265 3.863-13.744 1.667-4.47-2.197-7.88-6.043-11.736-9.206a46.661 46.661 0 00-44.335-7.77c-13.863 4.907-25.795 16.54-40.497 16.352-11.735-.154-21.88-7.906-33.155-11.154a44.79 44.79 0 00-37.779 6.419c-7.983 5.666-15.521 14.462-25.24 13.342-5.094-.59-9.376-3.906-13.701-6.667a72.9 72.9 0 00-28.693-10.633c-4.453-.632-9.18-.82-13.283 1.026-5.17 2.333-8.513 7.487-13.316 10.513-11.155 7.017-25.617.684-37.113-5.752-11.504-6.436-25.736-13.026-37.13-6.41-2.683 1.555-4.982 3.777-7.82 5.025-16.026 7.034-31.762-20.069-48.207-14.077-3.71 1.35-6.667 4.265-10.316 5.77a12.368 12.368 0 01-5.983.837v-14.813z" opacity=".1"/><path d="M513.33 505.425q-60.954-4.587-121.93-8.885c-7.058-.497-14.298-.974-21.08 1.04s-13.122 7.082-14.573 14.007c-2.194 10.47 10.231 20.798 20.124 16.728 3.651-1.503 6.606-4.42 10.317-5.77 16.442-5.985 32.18 21.113 48.2 14.077 2.84-1.248 5.138-3.463 7.82-5.02 11.398-6.618 25.63-.024 37.13 6.412s25.962 12.762 37.118 5.746c4.805-3.022 8.14-8.176 13.316-10.508 4.104-1.85 8.824-1.663 13.28-1.025a72.775 72.775 0 0128.697 10.633c4.324 2.756 8.606 6.07 13.7 6.66 9.72 1.126 17.26-7.676 25.237-13.34a44.82 44.82 0 0137.781-6.422c11.272 3.25 21.422 11.005 33.152 11.157 14.703.192 26.636-11.442 40.496-16.352a46.685 46.685 0 0144.34 7.772c3.855 3.165 7.26 7.006 11.737 9.204s10.604 2.208 13.744-1.666c1.52-1.876 2.122-4.378 3.692-6.213 6.417-7.502 20.392 2.412 28.172-3.665a10.653 10.653 0 003.561-5.864c1.951-7.774-2.933-15.967-9.622-20.384s-14.836-5.889-22.732-7.265c-19.087-3.326-38.43-6.665-57.735-5.032-14.05 1.189-27.751 4.99-41.737 6.784-19.894 2.553-40.049 1.016-60.095.36a682.053 682.053 0 00-128.364 7.935" fill="#f8f8fa"/><path d="M809.823 647.92v42.574q-25.257 1.295-50.523 2.573c-27.197 1.384-54.42 2.769-81.644 2.24-23.009-.454-45.967-2.266-68.968-2.984-48.36-1.504-96.858 1.872-145.081-2-15.437-1.24-30.822-3.214-46.284-4.094a340.601 340.601 0 00-47.438.684V646.8a37.314 37.314 0 014.368-.102 55.85 55.85 0 0122.027 5.325c5.393 2.555 10.504 6.025 16.385 7.043 15.3 2.64 28.59-11.813 44.078-12.967 12.47-.923 23.676 6.813 34.377 13.283 2.06 1.24 4.35 2.487 6.718 2.137 1.983-.291 3.616-1.65 5.231-2.838 15.266-11.265 38.523-9.898 52.353 3.086 1.504 1.401 3 2.983 4.983 3.504 3.923 1.043 7.444-2.36 10.556-4.975 16.855-14.214 42.83-9.94 62.173.659 3.58 1.957 7.547 4.188 11.504 3.162 2.65-.684 4.693-2.718 6.812-4.453 16.471-13.513 41.241-11 60.515-1.915 1.864.88 3.83 1.83 5.872 1.599 2.453-.291 4.334-2.18 6.223-3.761a31.736 31.736 0 0133.377-4.137c3.043 1.462 5.863 3.436 9.094 4.427 9.206 2.813 18.556-2.906 27.745-5.803a47.67 47.67 0 0115.547-2.154z" opacity=".1"/><path d="M856.184 689.844q-48.438 2.475-96.884 4.932c-27.197 1.385-54.42 2.77-81.644 2.24-23.009-.453-45.967-2.265-68.968-2.983-48.36-1.505-96.858 1.871-145.081-2-15.437-1.24-30.822-3.214-46.284-4.095a344.331 344.331 0 00-52.19 1.103c-3.71.35-9.419 2.205-13.009 1.479-3.872-.787-2.393-1.231-1.128-4.898a32.436 32.436 0 00.957-3.325c1.06-4.487 1.257-9.017 1.693-13.675.564-5.95 1.436-12.497 6.359-16.54 3.872-3.188 9.23-3.837 14.248-3.675a55.85 55.85 0 0122.027 5.325c5.393 2.556 10.504 6.026 16.385 7.043 15.3 2.641 28.59-11.812 44.078-12.966 12.47-.923 23.676 6.812 34.377 13.282 2.06 1.24 4.35 2.488 6.718 2.137 1.983-.29 3.616-1.65 5.231-2.837 15.266-11.266 38.523-9.898 52.353 3.085 1.504 1.402 3 2.983 4.983 3.504 3.923 1.043 7.444-2.359 10.556-4.974 16.855-14.214 42.83-9.94 62.173.658 3.58 1.957 7.547 4.188 11.504 3.163 2.65-.684 4.693-2.718 6.812-4.454 16.471-13.513 41.241-11 60.515-1.914 1.864.88 3.83 1.829 5.872 1.598 2.453-.29 4.334-2.18 6.223-3.76a31.736 31.736 0 0133.377-4.137c3.043 1.461 5.863 3.436 9.094 4.427 9.206 2.812 18.556-2.906 27.745-5.804a48.037 48.037 0 0160.002 30.514 45.82 45.82 0 011.906 7.547z" fill="#f8f8fa"/><path d="M856.184 689.844q-48.438 2.475-96.884 4.932c-27.197 1.385-54.42 2.77-81.644 2.24-23.009-.453-45.967-2.265-68.968-2.983-48.36-1.505-96.858 1.871-145.081-2-15.437-1.24-30.822-3.214-46.284-4.095a344.331 344.331 0 00-52.19 1.103c-3.71.35-9.419 2.205-13.009 1.479-3.872-.787-2.393-1.231-1.128-4.898a32.436 32.436 0 00.957-3.325h502.325a45.82 45.82 0 011.906 7.547z" opacity=".1"/><path d="M339.482 683.152h522.361a17.034 17.034 0 0117.034 17.034v2.197H322.448v-2.197a17.034 17.034 0 0117.034-17.034z" fill="#d4d5e0"/><rect x="526.108" y="275.902" width="3.134" height="8.658" rx="1.388" transform="rotate(16.713 636.461 51.914)" fill="#6c63ff"/><rect x="480.544" y="401.37" width="3.134" height="8.658" rx="1.388" transform="rotate(16.713 590.897 177.382)" fill="#6c63ff"/><rect x="431.745" y="546.651" width="3.134" height="8.658" rx="1.388" transform="rotate(16.713 542.098 322.663)" fill="#6c63ff"/><rect x="553.762" y="556.301" width="3.134" height="8.658" rx="1.388" transform="rotate(16.713 664.115 332.313)" fill="#6c63ff"/><rect x="626.21" y="550.864" width="3.134" height="8.658" rx="1.388" transform="rotate(16.713 736.563 326.876)" fill="#6c63ff"/><rect x="728.333" y="561.886" width="3.134" height="8.658" rx="1.388" transform="rotate(16.713 838.687 337.897)" fill="#6c63ff"/><rect x="798.179" y="545.779" width="3.134" height="8.658" rx="1.388" transform="rotate(16.713 908.531 321.791)" fill="#6c63ff"/><rect x="491.421" y="552.654" width="3.134" height="8.658" rx="1.388" transform="rotate(16.713 601.773 328.666)" fill="#6c63ff"/><rect x="639.504" y="567.289" width="3.134" height="8.658" rx="1.388" transform="rotate(16.713 749.857 343.301)" fill="#6c63ff"/><rect x="700.609" y="550.864" width="3.134" height="8.658" rx="1.388" transform="rotate(16.713 810.962 326.875)" fill="#6c63ff"/><rect x="829.661" y="545.779" width="3.134" height="8.658" rx="1.388" transform="rotate(16.713 940.014 321.79)" fill="#6c63ff"/><rect x="686.297" y="274.175" width="3.134" height="8.658" rx="1.388" transform="rotate(-53.674 616.883 318.386)" fill="#6c63ff"/><rect x="648.246" y="271.332" width="3.134" height="8.658" rx="1.388" transform="rotate(-53.674 578.832 315.542)" fill="#6c63ff"/><rect x="586.462" y="271.332" width="3.134" height="8.658" rx="1.388" transform="rotate(-53.674 517.047 315.542)" fill="#6c63ff"/><rect x="504.157" y="397.157" width="3.134" height="8.658" rx="1.388" transform="rotate(-53.674 434.743 441.368)" fill="#6c63ff"/><rect x="508.85" y="409.869" width="3.134" height="8.658" rx="1.388" transform="rotate(-53.674 439.435 454.08)" fill="#6c63ff"/><rect x="610.416" y="398.166" width="3.134" height="8.658" rx="1.388" transform="rotate(-53.674 541.001 442.377)" fill="#6c63ff"/><rect x="570.128" y="563.597" width="3.134" height="8.658" rx="1.388" transform="rotate(-53.674 500.714 607.808)" fill="#6c63ff"/><rect x="720.419" y="404.72" width="3.134" height="8.658" rx="1.388" transform="rotate(-53.674 651.004 448.93)" fill="#6c63ff"/><rect x="765.66" y="410.723" width="3.134" height="8.658" rx="1.388" transform="rotate(-53.674 696.246 454.934)" fill="#6c63ff"/><rect x="751.971" y="545.779" width="3.134" height="8.658" rx="1.388" transform="rotate(-53.674 682.556 589.99)" fill="#6c63ff"/><rect x="845.209" y="561.855" width="3.134" height="8.658" rx="1.388" transform="rotate(-53.674 775.795 606.066)" fill="#6c63ff"/><rect x="528.977" y="552.654" width="3.134" height="8.658" rx="1.388" transform="rotate(-53.674 459.563 596.864)" fill="#6c63ff"/><rect x="461.086" y="546.651" width="3.134" height="8.658" rx="1.388" transform="rotate(-53.674 391.672 590.862)" fill="#6c63ff"/><rect x="595.811" y="557.156" width="3.134" height="8.658" rx="1.388" transform="rotate(-53.674 526.397 601.367)" fill="#6c63ff"/><rect x="668.504" y="552.654" width="3.134" height="8.658" rx="1.388" transform="rotate(-53.674 599.09 596.864)" fill="#6c63ff"/><rect x="760.164" y="278.029" width="3.134" height="8.658" rx="1.388" transform="rotate(54.677 770.783 202.835)" fill="#6c63ff"/><rect x="679.987" y="289.824" width="3.134" height="8.658" rx="1.388" transform="rotate(54.677 690.607 214.63)" fill="#6c63ff"/><rect x="547.392" y="405.926" width="3.134" height="8.658" rx="1.388" transform="rotate(54.677 558.011 330.732)" fill="#6c63ff"/><rect x="587.483" y="409.869" width="3.134" height="8.658" rx="1.388" transform="rotate(54.677 598.102 334.675)" fill="#6c63ff"/><rect x="664.981" y="409.869" width="3.134" height="8.658" rx="1.388" transform="rotate(54.677 675.6 334.675)" fill="#6c63ff"/><rect x="689.209" y="401.648" width="3.134" height="8.658" rx="1.388" transform="rotate(54.677 699.828 326.454)" fill="#6c63ff"/><rect x="746.553" y="404.72" width="3.134" height="8.658" rx="1.388" transform="rotate(54.677 757.173 329.526)" fill="#6c63ff"/><rect x="788.395" y="398.166" width="3.134" height="8.658" rx="1.388" transform="rotate(54.677 799.015 322.972)" fill="#6c63ff"/><rect x="845.209" y="401.648" width="3.134" height="8.658" rx="1.388" transform="rotate(54.677 855.829 326.454)" fill="#6c63ff"/><rect x="670.866" y="269.541" width="3.134" height="8.658" rx="1.388" transform="rotate(16.713 781.219 45.553)" fill="#6c63ff"/><rect x="717.854" y="267.456" width="3.134" height="8.658" rx="1.388" transform="rotate(16.713 828.207 43.468)" fill="#6c63ff"/><rect x="653.346" y="286.454" width="3.134" height="8.658" rx="1.388" transform="rotate(16.713 763.699 62.466)" fill="#6c63ff"/><rect x="561.439" y="289.824" width="3.134" height="8.658" rx="1.388" transform="rotate(16.713 671.792 65.836)" fill="#6c63ff"/><rect x="725.062" y="282.242" width="3.134" height="8.658" rx="1.388" transform="rotate(16.713 835.415 58.254)" fill="#6c63ff"/><rect x="553.762" y="269.541" width="3.134" height="8.658" rx="1.388" transform="rotate(16.713 664.116 45.553)" fill="#6c63ff"/><rect x="602.039" y="278.029" width="3.134" height="8.658" rx="1.388" transform="rotate(16.713 712.392 54.04)" fill="#6c63ff"/><rect x="572.55" y="401.37" width="3.134" height="8.658" rx="1.388" transform="rotate(16.713 682.903 177.381)" fill="#6c63ff"/><rect x="644.673" y="401.37" width="3.134" height="8.658" rx="1.388" transform="rotate(16.713 755.037 177.386)" fill="#6c63ff"/><rect x="812.136" y="404.72" width="3.134" height="8.658" rx="1.388" transform="rotate(16.713 922.49 180.732)" fill="#6c63ff"/><rect x="829.661" y="404.72" width="3.134" height="8.658" rx="1.388" transform="rotate(16.713 940.026 180.736)" fill="#6c63ff"/><rect x="621.312" y="289.824" width="3.134" height="8.658" rx="1.388" transform="rotate(16.713 731.665 65.836)" fill="#6c63ff"/><ellipse cx="437.419" cy="770.766" rx="179" ry="16.1" fill="#6c63ff" opacity=".1"/><ellipse cx="198.972" cy="702.989" rx="28.598" ry="2.897" fill="#6c63ff" opacity=".1"/><ellipse cx="122" cy="775.507" rx="28.598" ry="2.897" fill="#6c63ff" opacity=".1"/><ellipse cx="907.927" cy="766.806" rx="28.598" ry="2.897" fill="#6c63ff" opacity=".1"/><ellipse cx="838.421" cy="797.495" rx="28.598" ry="2.897" fill="#6c63ff" opacity=".1"/><ellipse cx="756.208" cy="747.959" rx="28.598" ry="2.897" fill="#6c63ff" opacity=".1"/><ellipse cx="626.8" cy="815.242" rx="28.598" ry="2.897" fill="#6c63ff" opacity=".1"/><path d="M540.601 426.593l-12.728 27.063s-1.875 5.079-3.086 6.022c-1.2.942-6.557 17.013-6.557 17.013l-13.66 21.053v.011l-.932 1.436-5.357-1.479-3.75-14.035.225-4.071.032-.515s8.443-8.828 10.318-9.503c0 0 1.467.171 4.285-6.675 2.818-6.857 5.357-8.324 5.357-8.324l1.468-4.961 15.814-25.178s13.253-19.007 16.864-10.575c3.621 8.432-8.293 12.718-8.293 12.718z" fill="#ffd2c6"/><path d="M386.63 455.038a18.518 18.518 0 00-1.478 4.522c-.086.396-.172.814-.268 1.243-.879 4.51-1.479 10.189-1.779 13.478-.15 1.66-.225 2.721-.225 2.721s-31.97-2.143-26.43-7.5a11.834 11.834 0 002.924-5.314q.241-.852.418-1.735a29.667 29.667 0 00.503-4.05c.022-.343.032-.686.043-1.029a42.486 42.486 0 00-.321-6.621s10.403-.064 18.235.836c5.271.61 9.385 1.65 8.378 3.45z" fill="#d38884"/><path d="M487.717 618.823a2.94 2.94 0 01-.429 1.297c-1.467 2.143-9.77 45.93-9.77 45.93.663 2.958-1.2 8.85-2.411 11.529s-3.89 16.607-3.89 16.607-.664 29.999-2.4 34.68c-1.746 4.683.558 14.733.558 14.733-.172 4.617 2.603 9.503 4.253 11.989.118.16.225.321.321.46.536.772.89 1.21.89 1.21a7.125 7.125 0 001.875 2.315c.118.097.246.193.375.29a21.463 21.463 0 007.51 3.17c.086.022.172.033.257.054 1.072.236 1.768.332 1.768.332l.664 3.622-7.092 1.468-13.521.932s-15.943 1.21-12.321-5.893a12.434 12.434 0 00.653-1.5h.01c.13-.343.258-.696.365-1.06 2.175-6.825.707-15.118.707-15.118l-3.085-24.235c-5.079-22.5 4.007-47.549 4.007-47.549s-.793-2.003.953-7.093 0-16.2 0-16.2-.932-14.334-2.143-21.427a43.188 43.188 0 01-.482-9.021 45.53 45.53 0 01.482-5.282l30.535-4.05s1.725 4.982 1.361 7.81z" fill="#ffd2c6"/><path d="M487.288 767.04l-7.092 1.469-13.521.932s-15.943 1.21-12.321-5.893a12.434 12.434 0 00.653-1.5h.01c.13-.343.258-.696.365-1.06a24.751 24.751 0 018.078 1.628c4.543 1.746 7.961-2.818 7.961-2.818l2.207-4.21.321-.611c.536.771.89 1.21.89 1.21a7.225 7.225 0 002.25 2.604l-.375.782-2.143 4.51s2.743.28 6.493.88a2.912 2.912 0 003.535-1.93c.086.022.172.033.257.054 1.072.236 1.768.332 1.768.332z" opacity=".1"/><path d="M493.856 770.384c-.536 2.41-15.47 3.15-15.47 3.15s-8.304-.804-10.64 1.135c-2.346 1.94-9.182 1.479-9.45 1.479s-3.878-.14-5.292-6.622c-1.372-6.32 1.842-7.424 2.003-7.478h.01a24.279 24.279 0 018.443 1.64c4.543 1.746 7.961-2.819 7.961-2.819l2.528-4.82c.536.77.89 1.21.89 1.21a7.225 7.225 0 002.25 2.603l-2.518 5.293s2.743.279 6.493.879c3 .482 3.653-1.961 3.792-2.947a3.483 3.483 0 00.032-.407s2.336.675 5.218 1.479a5.385 5.385 0 013.75 6.225z" fill="#626696"/><path d="M521.98 650.74c-.353 2.143-.717 7.682-.717 7.682 1.253 4.64-1.961 15.664-1.961 15.664l-1.607 6.3c.717 8.035-4.414 27.674-4.414 27.674s-3.44 18.214-5.229 26.078a21.654 21.654 0 00.932 13.135c.086.215.14.322.14.322.032.15.064.29.107.44a6.167 6.167 0 00.193.631 9.526 9.526 0 001.757 2.99 8.397 8.397 0 00.964.985c.021.022.032.043.053.054a19.27 19.27 0 005.69 3.503h.01l.011.01q.466.194.9.354a25.415 25.415 0 002.84.89h.01c.203.053.321.075.321.075l-.717 4.21-9.461-2.421-12.675-4.114-6.235-3.568s.064-.343.193-.996c.01-.033.01-.075.021-.108.054-.278.107-.61.182-.985.975-5.529 3.397-20.989 2.186-32.378-1.51-14.1 4.36-33.567 5.796-38.206a23.108 23.108 0 001.071-8.218c-2.324-3.396-2.86-16.96-2.86-16.96s-4.286-8.753-7.832-18.042a47.316 47.316 0 01-2.55-9.386 32.694 32.694 0 01-.514-6.857s28.756-26.249 31.917-.835c.107.857.203 1.682.3 2.485 2.785 23.239 1.521 27.524 1.178 29.592z" fill="#ffd2c6"/><path d="M521.98 757.527l-.717 4.21-9.461-2.421-12.675-4.114-6.235-3.568s.064-.343.193-.996c.01-.033.01-.075.021-.108.054-.278.107-.61.182-.985l.89-.086.074-.01a11.779 11.779 0 015.304.717c2.068.772 4.768 1.66 5.325 1.286a6.701 6.701 0 013.032-.536l1.318-2.882.193-.44a9.526 9.526 0 001.757 2.99 9.347 9.347 0 001.017 1.04l-.053 1.017-.075 1.446a18.65 18.65 0 004.553 2.1 2.64 2.64 0 001.264.011h.011l.01.01q.467.194.901.354a25.415 25.415 0 002.84.89h.01c.203.053.321.075.321.075z" opacity=".1"/><path d="M517.245 766.505c-2.636-.76-9.01-1.971-10.04-1.028s-9.867 0-9.867 0a5.375 5.375 0 01-4.553-2.679c-1.832-2.86-.354-12.096-.354-12.096l.654-.064 1.093-.108.074-.01a11.779 11.779 0 015.304.718c2.068.771 4.768 1.66 5.325 1.285a6.701 6.701 0 013.032-.535l1.51-3.322a9.526 9.526 0 001.758 2.99 9.347 9.347 0 001.017 1.039l-.128 2.464a18.649 18.649 0 004.553 2.1 1.84 1.84 0 002.186-.697 1.664 1.664 0 00.16-.364l.011.01c.086.15.954.45 3.74 1.244h.01c3.022-.172 5.947 1.146 7.286 5.25 1.34 4.114-10.136 4.553-12.771 3.803z" fill="#626696"/><path d="M487.717 618.823a67.04 67.04 0 00-1.629.493 23.736 23.736 0 01-3.942.836c-8.454 1.19-22.382.471-26.807.193a45.53 45.53 0 01.482-5.282l30.535-4.05s1.725 4.982 1.361 7.81z" opacity=".1"/><path d="M514.352 611.41s-11.207 1.735-20.325 3.728c-3.042.664-5.86 1.36-7.939 2.035a23.734 23.734 0 01-3.942.836c-10.157 1.425-28.2.107-28.2.107-4.95-16.07 6.022-36.299 6.022-36.299-.257-1.607 2.282-6.557 2.282-6.557l.043-.16 1.564-5.733h41.645l.514 2.465 1.061 5.014 6.536 31.049z" fill="#626696"/><path d="M520.802 621.148l-.247.107-4.875 2.165c-5.27 2.432-21.063 2.892-26.58 2.935a32.694 32.694 0 01-.515-6.857s28.756-26.249 31.917-.835c.107.857.203 1.682.3 2.485z" opacity=".1"/><path d="M521.573 618.663l-1.018.45-4.874 2.164c-5.368 2.475-21.664 2.914-26.882 2.936-.632 0-1.103 0-1.371-.011-2.41-.075-4.822-2.336-4.822-2.925 0-.322-.246-1.907-.46-3.268-.182-1.093-.343-2.036-.343-2.036s-10.714-4.639-16.2-8.389c-4.092-2.785-3.064-22.574-2.271-32.527.279-3.429.525-5.69.525-5.69l42.16 2.465 5.914.343 3.385.75.9.192s2.422 17.679 3.622 19.146.407 6.429.267 9.247a17.468 17.468 0 01-.396 3.61s1.736 4.96 1.329 7.736a15.42 15.42 0 00.535 5.807z" fill="#626696"/><path d="M331.271 607.177c-10.896-.364-2.86-23.035-1.607-26.1s-1.864-10.51-1.864-10.51-3.675-21.61-3.675-23.035a57.376 57.376 0 00-1.243-8.753c-.536-1.96.172-6.6 1.425-8.571 1.253-1.96 1.071-9.814 1.071-9.814v-10.178L327.8 507l6.214 5.872 1.725 1.628 3.032 11.378-1.071 16.296-.536 15.89 3.75 21.963s1.253 27.503-9.643 27.15z" fill="#d38884"/><path opacity=".1" d="M334.667 515.573l-9.289-3.847v-1.51l2.422-3.215 6.214 5.872.653 2.7z"/><path d="M330.378 492.355a43.16 43.16 0 00-2.576 9.107 40.75 40.75 0 01-2.424 8.75l10.357 4.286z" fill="#4c4981"/><path d="M330.378 492.355a43.16 43.16 0 00-2.576 9.107 40.75 40.75 0 01-2.424 8.75l10.357 4.286z" opacity=".05"/><path d="M412.569 717.853l-.857 1.821s-.932 6.064-.932 6.204c0 .128-2.679 4.189-2.679 4.189l-6.739 1.435-2.86-.342a38.228 38.228 0 00-.761-4.95c-.107-.461-.214-.932-.343-1.415a37.371 37.371 0 00-4.703-10.66s-4.993-12.321-6.782-13.928-8.572-17.86-7.854-21.782c.386-2.164.075-9.374-.278-15.396-.29-4.907-.61-9.032-.61-9.032l16.96-10.039 1.97 3.118a.04.04 0 00.011.032l1.179 1.854s-.01.353-.064.943c0 .064-.011.139-.011.214a30.737 30.737 0 01-1.51 7.414s-1.276 9.107 0 10.714c1.242 1.554 5.303 23.089 6.203 33.02.032.311.053.611.075.9.353 4.565 3.182 8.636 6.02 11.614l.033.033c.182.193.375.385.568.578a39.884 39.884 0 003.964 3.46z" fill="#d38884"/><path d="M398.501 731.16l2.861.342 6.74-1.435s2.678-4.06 2.678-4.19c0-.139.932-6.203.932-6.203l.857-1.821.107-.225a37.376 37.376 0 01-4.639-3.814l-.032-.033c-.16-.15-.31-.3-.472-.46 0 0 .965 5.903-4.167 8.539a193.082 193.082 0 01-5.968 2.935z" opacity=".1"/><path d="M413.747 718.7l-.964 2.046s-.932 6.064-.932 6.203c0 .129-2.678 4.19-2.678 4.19l-6.74 1.435-3.867-.46a33.548 33.548 0 00-.332-3.226 36.483 36.483 0 00-.493-2.678c1.435-.665 3.75-1.768 6.696-3.279 5.132-2.635 4.168-8.539 4.168-8.539a39.641 39.641 0 003.525 3.129c.707.546 1.275.942 1.617 1.178z" fill="#ceddf9"/><path d="M413.747 718.7l-.964 2.046s-.932 6.064-.932 6.203c0 .129-2.678 4.19-2.678 4.19l-6.74 1.435-3.867-.46a33.548 33.548 0 00-.332-3.226 12.92 12.92 0 012.453.332s9.203 1.972 9.643-5.314c.257-4.135 1.114-5.753 1.8-6.385a35.29 35.29 0 001.617 1.178z" opacity=".1"/><path d="M413.071 718.22s-2.293-.514-2.74 6.763-9.642 5.312-9.642 5.312-4.509-1.116-4.554.76a17.53 17.53 0 001.206 5.044s.268 4.33 1.116 5.357.312 4.866.312 4.866.357 2.857 7.455 0c0 0 6.347-1.306 11.607-9.196.179-.268-.625-1.072 3.973-2.724s17.768-12.231 16.741-17.41a4.383 4.383 0 00-3.115-3.71 5.367 5.367 0 00-4.117.552 34.46 34.46 0 01-3.84 1.774 18.745 18.745 0 01-5.486 1.308 20.606 20.606 0 00-4.257.818c-1.546.465-3.52.89-4.659.485z" fill="#cc8294"/><path d="M361.002 668.193a12.563 12.563 0 00-2.582 2.979c-2.603 3.964-4.157 9.503-5.924 11.892-2.272 3.086-2.882 9.107-2.882 9.107-.6 3.954-8.968 25.05-11.25 28.8-2.272 3.75-5.421 13.928-5.421 13.928-1.929 2.421-1.811 6.01-1.618 7.725.043.3.075.535.096.696.032.182.054.279.054.279l-.054.096-3.096 5.26-9.846-1.36-5.09-3.46a16.508 16.508 0 001.104-2.1c2.721-6.076 4.66-16.918 4.66-16.918s2.743-12.386 2.54-15.268c-.193-2.882.803-11.785.803-11.785s7.704-23.7 10.125-27.589a11.055 11.055 0 001.864-5.089 4.028 4.028 0 00-.053-1.103l3.332-3.31s27.524 3.813 23.238 7.22z" fill="#d38884"/><path d="M331.475 742.527s-.033.3-.054.793v.375l-3.096 5.26-9.846-1.36-5.09-3.46a16.508 16.508 0 001.104-2.1c2.475-.708 8.143 1.296 8.143 1.296s6.117 1.167 8.689-.707a.589.589 0 00.15-.097z" opacity=".1"/><path d="M329.064 756.584l-9.985 2.421-9.171-6.771.47-3.814a6.985 6.985 0 001.683-1.532 6.082 6.082 0 001.329-2.754c.535-2.807 9.246.268 9.246.268s6.364 1.21 8.839-.803a15.593 15.593 0 00.471 5.507 4.137 4.137 0 001.468 2.196c2.55 1.736-4.35 5.282-4.35 5.282z" fill="#ceddf9"/><path d="M329.064 756.584l-9.985 2.421-9.171-6.771.47-3.814a6.985 6.985 0 001.683-1.532c.664-.011 1.393 0 2.003.053 1.543.14 5.154 6.707 5.154 6.707 9.064.6 11.764-2.357 12.728-4.542a4.137 4.137 0 001.468 2.196c2.55 1.736-4.35 5.282-4.35 5.282z" opacity=".1"/><path d="M319.218 754.714s-3.616-6.562-5.156-6.696a34.251 34.251 0 00-3.884 0s-4.018 9.509-5.49 10.38-3.617 5.356-3.617 5.356 10.608 10.246 20.873 8.304a21.197 21.197 0 019.394 2.343c4.754 2.478 24.575.603 26.986-3.75 1.808-3.264 2.524-5.639.932-7.38a4.27 4.27 0 00-3.727-1.264c-2.495.342-8.09.27-13.008-5.753 0 0-9.04-8.288-9.777-8.295s.603 7.693-13.526 6.755z" fill="#cc8294"/><path d="M397.29 650.033a.65.65 0 01-.074.086c-.61.675-4.982 5.464-6.3 5.807a62.262 62.262 0 00-6.429 2.85s-2.678 3.578-4.82 3.75a8.324 8.324 0 00-1.887.503c-.289-4.907-.61-9.032-.61-9.032l16.96-10.039 1.972 3.118a.04.04 0 00.01.032c.45 1.265.954 2.422 1.115 2.797z" opacity=".1"/><path d="M335.557 581.074s-6.607 8.6 0 20.028 13.57 17.143 13.57 17.143l22.5 46.606s5.893-3.215 8.036-3.393 4.821-3.75 4.821-3.75a63.483 63.483 0 016.428-2.857c1.429-.357 6.379-5.893 6.379-5.893s-2.45-5.357-1.914-6.785-1.608-5-1.608-5a29.587 29.587 0 01-1.428-5.536c0-1.428-2.321-4.821-2.321-4.821s-2.322-3.571-2.322-5.536-3.393-9.642-3.393-9.642l-.892-33.928z" fill="#ceddf9"/><path d="M397.29 648.962s-4.949 5.528-6.374 5.892a62.262 62.262 0 00-6.428 2.85s-2.679 3.579-4.822 3.75a17.258 17.258 0 00-4.392 1.575c-1.918.879-3.643 1.822-3.643 1.822l-22.5-46.606a49.09 49.09 0 01-5.464-5.604 76.92 76.92 0 01-8.11-11.539 19.318 19.318 0 01-2.56-13.896 16.082 16.082 0 012.56-6.128l16.006-1.125 31.853-2.24.268 10.029.621 23.892s.525 1.2 1.168 2.775c.986 2.41 2.229 5.679 2.229 6.868 0 1.971 2.314 5.539 2.314 5.539s2.325 3.396 2.325 4.821a29.78 29.78 0 001.425 5.54s2.143 3.567 1.607 4.992c-.536 1.436 1.918 6.793 1.918 6.793z" opacity=".05"/><path d="M361.002 668.193a12.563 12.563 0 00-2.582 2.979c-9.717.696-21.01-4.382-23.935-5.786a4.028 4.028 0 00-.053-1.103l3.332-3.31s27.524 3.813 23.238 7.22z" opacity=".1"/><path d="M389.662 591.642s-1.425 4.993-1.96 7.135-1.607 12.686-1.607 12.686l-.622 2.946-10.2 48.62-2.217 10.575c-3.932 2.143-13.746-3.579-13.746-3.579-11.432 1.254-25.542-6.064-25.542-6.064s2.324-7.5 1.789-11.25 3.214-6.792 3.214-6.792c-.89-3.386 2.314-18.214 2.314-18.214s.718-5.528 3.397-6.964c2.678-1.425-.354-3.568-1.072-4.821-.353-.61-.096-2.014.257-3.279a25.519 25.519 0 01.815-2.432c-6.804-6.803-7.854-17.453-7.865-23.356a38.675 38.675 0 01.193-4.318l14.753-2.582 32.207-5.636 3.278 10.114v.022l.825 2.54z" fill="#ceddf9"/><path d="M386.63 455.038a18.518 18.518 0 00-1.478 4.522c-.086.396-.172.814-.268 1.243-3.107 2.014-5.028 2.03-9.003 2.03-1.372 0-2.132-2.62-3.428-2.888 0 0-1.945-7.01-2.502-1.1-3.74-.772-6.966 2.15-9.613-.4l-.043-.042c.022-.343.032-.686.043-1.029a42.486 42.486 0 00-.321-6.621s10.403-.064 18.235.836c5.271.61 9.385 1.65 8.378 3.45z" opacity=".1"/><path d="M394.002 443.017a19.899 19.899 0 01-23.903 19.49s-.011-.012-.011 0a19.894 19.894 0 1123.914-19.49z" fill="#d38884"/><path d="M383.105 474.28c-.15 1.661-.225 2.722-.225 2.722s-31.97-2.143-26.43-7.5a11.834 11.834 0 002.924-5.314l13.864 2.272s3.921 3.042 6.964 5.892a12.23 12.23 0 002.903 1.929zm4.768 113.783a10.348 10.348 0 01-4.189-.321 7.647 7.647 0 01-1.703-.75c-2.679-1.607-11.604.364-11.604.364s-24.288 1.607-25.36 0c-.61-.921-4.885-.782-8.4-.503a144.13 144.13 0 00-3.62.353 16.082 16.082 0 012.56-6.128l16.006-1.125 32.207-5.636 3.278 10.114v.022c.375 2.068.825 3.61.825 3.61z" opacity=".1"/><path d="M373.234 467.535l-17.43-2.858a5.172 5.172 0 01-3.283 2.858c-2.322.535-12.679 5.892-17.321 12.32l-4.643 6.429s-3.75 4.643-2.5 8.393 2.678 16.428 2.678 16.428l1.786 14.107s3.393 10.178 2.321 14.642.536 23.214.536 23.214l-3.571 23.213s12.142-1.607 13.214 0 25.356 0 25.356 0 8.929-1.964 11.607-.357a9.666 9.666 0 005.893 1.072s-2.143-7.322-.893-11.429.893-11.606.893-11.606 1.785-10.893.893-12.857 1.964-9.107 1.964-9.107l9.464-49.82s-1.146-8.929-6.198-11.964-10.766-3.929-13.802-6.786-6.964-5.892-6.964-5.892z" fill="#4c4981"/><path d="M381.27 516.64v5.893l5.51 14.821 1.99 13.75s3.571 9.82 3.571 13.214 8.75 19.82 8.75 19.82 2.385 5.536 1.192 6.608-11.55 24.642 1.486 23.927 8.929-25.356 8.929-25.356l-1.786-10.714s-2.5-26.785-2.5-28.75c0 0-3.214-11.428-3.571-13.927s-2.679-15.179-2.679-15.179l-1.964-8.214z" fill="#d38884"/><path opacity=".1" d="M375.065 535.211l-19.419 11.116-6.027 9.107 8.035-8.169 17.411-12.054zm-5.893 21.294s-8.84 5.76-12.99 5.76-13.795 9.91-13.795 9.91 13.66-8.824 14.732-8.564 12.053-7.106 12.053-7.106zm-22.633 3.081s-8.304 7.5-6.16 8.303 13.258-8.303 13.258-8.303zm36.695-26.786s-6.428 8.706-4.687 8.572 6.696-5.09 6.696-5.09zm.938 8.573s-6.965 7.9-6.697 9.91 6.697-9.91 6.697-9.91zm1.741 3.95s-4.688 8.37-2.679 10.111 2.679-10.111 2.679-10.111zm-6.027-21.495s-3.482 5.892-.938 6.294 2.797 0 2.797 0zm.937-21.562a61.726 61.726 0 01-3.567 10.51 48.285 48.285 0 01-1.393-5.271 36.596 36.596 0 014.96-5.24zm10.629-68.988a8.672 8.672 0 01-1.35 2.079 15.627 15.627 0 00-2.422 2.775c-.75 1.425-.61 3.139-.867 4.735-.258 1.586-1.265 3.354-2.872 3.407a6.303 6.303 0 01-2.357-.707 2.37 2.37 0 00-2.346.075 2.595 2.595 0 00-.75 1.768 23.721 23.721 0 00-.236 4.179c.01.557.043 1.103.096 1.66.172 1.79.525 3.718-.32 5.314a6.389 6.389 0 01-3.3 2.647 19.459 19.459 0 01-4.63 1.296s-.01-.01-.01 0a50.82 50.82 0 01-9.128.3 2.317 2.317 0 01-.815-.128 1.238 1.238 0 01-.353-.225 30.122 30.122 0 00.546-5.079 19.893 19.893 0 1131.114-24.096z"/><path d="M383.128 416.387c-1.826-.187-3.547.79-5.34 1.185-3.706.819-7.498-.87-11.293-.856a20.85 20.85 0 00-9.28 2.77 22.316 22.316 0 00-6.198 4.337 10.083 10.083 0 00-2.945 6.809c.012 1.475.431 3.02-.134 4.382a14.119 14.119 0 01-1.352 2.064 6.06 6.06 0 00-.632 5.11c.583 1.745 1.922 3.108 3.049 4.561 2.44 3.15 3.977 6.901 6.169 10.23a30.552 30.552 0 003.217 4.081 2.144 2.144 0 00.687.55 2.22 2.22 0 00.813.126c4.657.131 9.484.232 13.767-1.6a6.389 6.389 0 003.301-2.643c.84-1.597.495-3.523.324-5.32a24.836 24.836 0 01.131-5.838 2.662 2.662 0 01.752-1.765 2.402 2.402 0 012.354-.072 6.123 6.123 0 002.348.703c1.613-.056 2.621-1.814 2.879-3.408s.113-3.306.868-4.733a15.282 15.282 0 012.421-2.77 11.368 11.368 0 002.013-10.07c-.994-3.317-4.234-7.456-7.919-7.833z" fill="#1e1637"/><circle cx="476.446" cy="454.588" r="17.276" fill="#ffd2c6"/><path d="M468.009 461.799s1.205 16.36-2.143 20.11-12.053 10.848-12.053 10.848l2.678 11.116 15.134 1.74 17.678-18.883-4.018-4.955s-3.08-10.446-.536-15.669-16.74-4.307-16.74-4.307z" fill="#ffd2c6"/><path d="M504.57 497.744v.011l-.932 1.436-5.357-1.479-3.75-14.035.225-4.071 1.104-1.586s5.892.14 5.635 5.496c-.246 4.714 2.432 12.44 3.075 14.228zm11.646 77.516s-4.264.954-9.139 1.586c-4.95.643-10.52.964-12.824-.386-3.879-2.293-24.89-1.64-30.921-1.403-.429.01-.771.032-1.04.042l1.565-5.732h41.645l.514 2.465 5.915.343 3.385.75c.557 1.392.9 2.335.9 2.335z" opacity=".1"/><path d="M494.794 479.097s5.892.134 5.624 5.49 3.215 14.598 3.215 14.598l-1.34 3.08s-1.875 7.5-.401 9.375 6.83 1.875 3.75 17.277c0 0-.667 11.517.939 15.267s1.605 12.723 4.016 16.473 5.625 12.455 5.625 12.455-17.41 3.884-21.964 1.205-32.544-1.339-32.544-1.339.134-4.687 0-5.223a4.444 4.444 0 01.67-3.415c.937-1.272 2.41-3.415 1.607-5.29s2.009-4.633.536-7.54-3.27-3.48-2.908-5.068-.575-3.728-1.646-5.069-8.303-15.494-8.303-15.494l-1.206-6.605s-9.32-6.83-9.146-10.044 3.522-7.667 3.522-7.667l8.973-8.806s4.955 5.357 9.776 3.482 15.18-10.848 15.18-10.848 3.704-2.009 3.971-3.482 2.545-.134 2.545-.134 3.348-1.836 4.018-1.186 3.616 1.186 3.616 1.186z" fill="#ffcde5"/><path d="M444.17 506.998l-2.853 2.232s-2.906 5.223-3.576 14.598-3.616 22.614-3.616 22.614l-5.624 10.063s-9.241 19.406-10.446 24.569-6.697 13.868-6.697 13.868-18.615 16.728-5.625 19.747 13.393-13.319 13.393-13.319 3.028-3.348 3.523-5.625 16.967-31.405 16.967-31.405 5.76-7.835 4.554-11.986c0 0 7.5-17.632 7.5-22.053a77.933 77.933 0 00-1.206-11.027l1.206-9.24z" fill="#ffd2c6"/><path d="M482.74 543.916s-13.124 6.87-15.669 7.232 11.116-1.473 11.116-1.473zm10.714 5.357s-17.41 5.893-25.044 4.822c0 0 19.018 3.616 25.044-4.822z" opacity=".1"/><path d="M494.526 551.196s-15.672 9.863-24.912 8.256c0 0 21.564 4.285 24.912 2.009l-9.643-2.679s10.714-5.664 9.643-7.586zM476.47 424.19c-4.525-.913-9.554-.356-13.182 2.497-2.683 2.11-4.467 5.337-7.495 6.915a43.962 43.962 0 01-4.894 1.722 14.132 14.132 0 00-8.626 15.205c.473 2.651 1.716 5.106 2.33 7.727 1.093 4.674.13 9.566-1.056 14.217a149.785 149.785 0 01-14.881 36.919 3.85 3.85 0 00-.737 2.477 3.484 3.484 0 00.91 1.584c6.192 7.152 16.264 9.608 25.717 9.932 3.485.12 7.127-.034 10.194-1.69a15.44 15.44 0 004.97-4.565 24.207 24.207 0 004.61-15.56c-.258-4.486-1.765-9.034-.63-13.383a3.574 3.574 0 01.802-1.64c1.019-1.04 2.712-.766 4.158-.933 3.93-.456 6.468-4.604 6.934-8.533s-.51-7.882-.535-11.84a24.802 24.802 0 014.67-14.573c1.307-1.806 2.977-3.571 3.419-5.832.551-2.822-1.083-4.894-2.496-7.13-2.194-3.472-3.27-7.53-6.615-10.179a17.84 17.84 0 00-7.567-3.336z" opacity=".1"/><path d="M475.398 423.12c-4.524-.914-9.553-.357-13.181 2.496-2.684 2.11-4.467 5.337-7.495 6.915a43.962 43.962 0 01-4.894 1.721 14.132 14.132 0 00-8.627 15.206c.474 2.65 1.716 5.105 2.33 7.727 1.093 4.673.13 9.566-1.055 14.216a149.785 149.785 0 01-14.882 36.92 3.85 3.85 0 00-.736 2.476 3.484 3.484 0 00.91 1.585c6.191 7.152 16.263 9.608 25.717 9.932 3.485.119 7.126-.034 10.194-1.69a15.44 15.44 0 004.97-4.566 24.207 24.207 0 004.609-15.559c-.257-4.486-1.764-9.035-.63-13.383a3.574 3.574 0 01.803-1.64c1.019-1.04 2.711-.766 4.158-.934 3.93-.456 6.468-4.603 6.934-8.533s-.511-7.882-.535-11.839a24.802 24.802 0 014.67-14.573c1.306-1.806 2.977-3.571 3.418-5.832.552-2.823-1.082-4.895-2.496-7.131-2.194-3.471-3.27-7.53-6.614-10.178a17.84 17.84 0 00-7.568-3.337z" fill="#985c7e"/><path d="M402.255 501.097c-.718 2.85 0 7.318 0 7.318-.182 1.96 0 12.857 0 12.857-5.893-1.79-20.892 1.789-20.892 1.789l-1.79-5.357a13.204 13.204 0 01-2.228-4.403 48.283 48.283 0 01-1.393-5.272 109.635 109.635 0 01-1.757-11.217c-.74-5.679 7.703-11.786 14.089-15.182s12 11.067 12 11.067 2.678 5.54 1.97 8.4z" opacity=".1"/><path d="M402.255 500.026c-.718 2.85 0 7.318 0 7.318-.182 1.96 0 12.856 0 12.856-5.893-1.789-20.892 1.79-20.892 1.79l-1.79-5.357a13.204 13.204 0 01-2.228-4.404 48.283 48.283 0 01-1.393-5.271 109.635 109.635 0 01-1.757-11.218c-.74-5.678 7.703-11.785 14.089-15.181s12 11.067 12 11.067 2.678 5.54 1.97 8.4z" fill="#4c4981"/><path d="M469.614 590.567s3.441 16.07 9.154 20.446z" opacity=".1"/><path d="M390.92 424.22a12.33 12.33 0 00-1.322-2.868c.094.245.18.488.25.725a11.368 11.368 0 01-2.012 10.07 15.28 15.28 0 00-2.42 2.77c-.756 1.427-.612 3.14-.869 4.733s-1.266 3.352-2.88 3.408a6.12 6.12 0 01-2.347-.703 2.402 2.402 0 00-2.354.072 2.663 2.663 0 00-.751 1.765 24.84 24.84 0 00-.132 5.839c.172 1.796.517 3.722-.324 5.319a6.389 6.389 0 01-3.3 2.644c-4.284 1.831-9.111 1.73-13.768 1.599a2.22 2.22 0 01-.813-.125 2.143 2.143 0 01-.687-.55 30.561 30.561 0 01-3.217-4.082c-2.192-3.329-3.728-7.08-6.17-10.23-.668-.862-1.408-1.695-2.024-2.592.017.058.028.117.047.175.584 1.744 1.923 3.107 3.049 4.56 2.441 3.15 3.977 6.901 6.17 10.23a30.561 30.561 0 003.216 4.081 2.143 2.143 0 00.688.55 2.22 2.22 0 00.813.126c4.656.131 9.483.232 13.767-1.6a6.389 6.389 0 003.3-2.643c.841-1.597.496-3.523.324-5.32a24.84 24.84 0 01.132-5.838 2.663 2.663 0 01.751-1.765 2.402 2.402 0 012.354-.072 6.12 6.12 0 002.348.703c1.614-.056 2.622-1.814 2.88-3.408s.112-3.306.868-4.733a15.28 15.28 0 012.42-2.77 11.368 11.368 0 002.013-10.07z" opacity=".2"/><path d="M442.22 453.058a35.539 35.539 0 00-.605-1.874 36.8 36.8 0 00.604 1.874zm48.86-14.026a5.636 5.636 0 01-.075 1.519c-.442 2.26-2.112 4.026-3.418 5.831a24.801 24.801 0 00-4.67 14.574c.023 3.957 1 7.91.534 11.84s-3.003 8.076-6.934 8.532c-1.446.168-3.139-.106-4.158.934a3.574 3.574 0 00-.802 1.64c-1.135 4.348.373 8.897.63 13.383a24.208 24.208 0 01-4.61 15.56 15.442 15.442 0 01-4.97 4.564c-3.067 1.657-6.709 1.81-10.193 1.69-9.3-.318-19.189-2.71-25.402-9.595a2.469 2.469 0 00-.154 1.293 3.483 3.483 0 00.91 1.585c6.191 7.152 16.263 9.608 25.717 9.932 3.484.119 7.126-.034 10.194-1.69a15.442 15.442 0 004.97-4.566 24.208 24.208 0 004.609-15.559c-.257-4.486-1.764-9.035-.63-13.383a3.574 3.574 0 01.803-1.64c1.019-1.04 2.711-.766 4.158-.934 3.93-.456 6.468-4.603 6.934-8.533s-.511-7.882-.536-11.839a24.801 24.801 0 014.671-14.573c1.306-1.806 2.977-3.571 3.418-5.832a6.667 6.667 0 00-.997-4.733z" opacity=".1"/><path d="M131.986 727.695s-37.295 19.267-18.027 41.969c0 0 1.812 4.96 7.058 4.578 0 0-1.05-1.908 2.957-3.434a19.384 19.384 0 004.024-2.14 9.473 9.473 0 003.607-4.823s7.63-10.206 1.717-29.092c0 0 .763-5.341.095-6.2l-4.53 6.212s4.685 3.148 5.222 7.762c0 0-4.881-7.749-5.938-6.868-.215.18-2.254 3.398-2.254 3.398s8.12 5.509 8.728 12.663c0 0-4.578-10.016-9.514-11.447l-2.79 5.044s8.87 5.401 9.872 13.52c0 0-5.151-10.3-10.409-12.375l-2.075 5.33s8.55 5.436 9.336 12.196c0 0-7.154-11.303-9.73-10.945 0 0-1.609 5.008-1.394 6.546 0 0 6.045 4.042 6.152 8.012 0 0-5.58-7.047-6.438-6.582 0 0-.358 7.083 1.359 10.767 0 0-2.933-5.258-2.468-10.767a11.82 11.82 0 00-3.577 5.76s-1.61-3.9 3.684-7.476c0 0 .501-5.509 1.11-6.188 0 0-5.724 2.79-8.156 6.223 0 0 .894-5.115 8.656-7.654l1.967-5.401s-7.762 3.29-10.158 6.188c0 0 1.72-5.077 10.766-7.512l2.683-4.972s-6.904 2.325-10.266 4.972c0 0 2.611-4.364 11.089-6.367l2.181-3.112s-5.007 1.789-6.402 2.433-1.681.322-1.681.322a18.08 18.08 0 018.978-4.078s4.912-6.128 4.566-6.462zm630.639-25.932s-37.295 19.268-18.028 41.969c0 0 1.813 4.96 7.059 4.578 0 0-1.05-1.907 2.957-3.433a19.385 19.385 0 004.023-2.141 9.473 9.473 0 003.607-4.822s7.631-10.206 1.717-29.093c0 0 .763-5.341.096-6.2l-4.531 6.212s4.686 3.148 5.222 7.762c0 0-4.88-7.748-5.937-6.867-.215.178-2.254 3.398-2.254 3.398s8.12 5.508 8.728 12.662c0 0-4.579-10.015-9.515-11.446l-2.79 5.043s8.87 5.401 9.872 13.52c0 0-5.15-10.3-10.408-12.375l-2.075 5.33s8.549 5.436 9.336 12.197c0 0-7.154-11.303-9.73-10.946 0 0-1.609 5.008-1.394 6.546 0 0 6.045 4.042 6.152 8.012 0 0-5.58-7.046-6.439-6.581 0 0-.357 7.082 1.36 10.766 0 0-2.933-5.258-2.468-10.766a11.82 11.82 0 00-3.577 5.759s-1.61-3.9 3.684-7.476c0 0 .5-5.509 1.109-6.188 0 0-5.723 2.79-8.156 6.224 0 0 .895-5.115 8.657-7.655l1.967-5.401s-7.762 3.29-10.159 6.188c0 0 1.721-5.077 10.767-7.511l2.683-4.972s-6.904 2.325-10.266 4.972c0 0 2.611-4.364 11.088-6.367l2.182-3.112s-5.008 1.788-6.403 2.432-1.68.322-1.68.322a18.08 18.08 0 018.977-4.078s4.913-6.128 4.567-6.462zm158.428 16.836s-37.295 19.268-18.027 41.969c0 0 1.812 4.96 7.058 4.578 0 0-1.049-1.907 2.957-3.433a19.385 19.385 0 004.024-2.142 9.473 9.473 0 003.607-4.821s7.63-10.207 1.717-29.093c0 0 .763-5.341.095-6.2l-4.53 6.212s4.685 3.148 5.222 7.762c0 0-4.88-7.748-5.938-6.867-.215.178-2.253 3.398-2.253 3.398s8.12 5.508 8.727 12.662c0 0-4.578-10.016-9.514-11.446l-2.79 5.043s8.87 5.401 9.872 13.52c0 0-5.15-10.3-10.409-12.375l-2.074 5.33s8.548 5.436 9.335 12.197c0 0-7.154-11.303-9.729-10.946 0 0-1.61 5.008-1.395 6.546 0 0 6.045 4.042 6.152 8.012 0 0-5.58-7.046-6.438-6.581 0 0-.358 7.082 1.36 10.766 0 0-2.934-5.258-2.469-10.766a11.82 11.82 0 00-3.577 5.759s-1.61-3.9 3.684-7.476c0 0 .501-5.509 1.11-6.188 0 0-5.724 2.79-8.156 6.224 0 0 .894-5.115 8.656-7.655l1.967-5.401s-7.762 3.29-10.158 6.188c0 0 1.72-5.077 10.766-7.512l2.683-4.971s-6.903 2.325-10.266 4.971c0 0 2.612-4.363 11.089-6.366l2.182-3.112s-5.008 1.788-6.403 2.432-1.681.322-1.681.322a18.08 18.08 0 018.978-4.078s4.912-6.128 4.566-6.462z" fill="#6c63ff"/><path d="M649.63 509.325l-2.044-2.49c4.023-3.302 4.214-23.716 2.202-34.787-1.397-7.681-1.609-14.267-.65-20.135 1.527-9.344 6.003-16.262 13.305-20.562 15.147-8.921 24.229-33.394 24.319-33.64l3.025 1.104c-.383 1.049-9.561 25.8-25.71 35.31-10.735 6.323-14.476 18.888-11.122 37.347 1.582 8.698 2.914 32.73-3.325 37.853z" fill="#d4d5e0"/><path d="M733.712 385.662c9.873-24.229 1.394-50.587-18.938-58.872s-44.819 4.64-54.691 28.87c-9.586 23.524-1.87 49.054 17.197 58.102a13.887 13.887 0 01-5.563 5.55c-4.13 1.928 9.29 3.785 9.29 3.785a23.48 23.48 0 011.268-7.433c19.624 5.752 42.086-7.053 51.437-30.002z" fill="#6c63ff"/><path d="M664.003 378.152c.454-10.46 6.77-18.763 14.325-19.133a10.759 10.759 0 00-.99-.09c-7.986-.346-14.844 8.222-15.317 19.137-.46 10.598 5.269 19.511 12.912 20.338-.136.793-11.389-9.672-10.93-20.252z" fill="#fff" opacity=".2"/><path d="M772.63 673.325l-2.044-2.49c4.023-3.302 4.214-23.716 2.202-34.787-1.397-7.681-1.609-14.267-.65-20.135 1.527-9.344 6.003-16.262 13.305-20.562 15.147-8.921 24.229-33.394 24.319-33.64l3.025 1.104c-.383 1.049-9.561 25.8-25.71 35.31-10.735 6.323-14.476 18.888-11.122 37.347 1.582 8.698 2.914 32.73-3.325 37.853z" fill="#d4d5e0"/><path d="M856.712 549.662c9.873-24.229 1.394-50.587-18.938-58.872s-44.819 4.64-54.691 28.87c-9.586 23.524-1.87 49.054 17.197 58.102a13.887 13.887 0 01-5.563 5.55c-4.13 1.928 9.29 3.785 9.29 3.785a23.48 23.48 0 011.268-7.433c19.624 5.752 42.086-7.053 51.437-30.002z" fill="#6c63ff"/><path d="M787.003 542.152c.454-10.46 6.77-18.763 14.325-19.133a10.759 10.759 0 00-.99-.09c-7.986-.346-14.844 8.222-15.317 19.137-.46 10.598 5.269 19.511 12.912 20.338-.136.793-11.389-9.672-10.93-20.252z" fill="#fff" opacity=".2"/><path d="M584.63 356.325l-2.044-2.49c4.023-3.302 4.214-23.716 2.202-34.787-1.397-7.681-1.609-14.267-.65-20.135 1.527-9.344 6.003-16.262 13.305-20.562 15.147-8.921 24.229-33.394 24.319-33.64l3.025 1.104c-.383 1.049-9.561 25.8-25.71 35.31-10.735 6.323-14.476 18.888-11.122 37.347 1.582 8.698 2.914 32.73-3.325 37.853z" fill="#d4d5e0"/><path d="M668.712 232.662c9.873-24.229 1.394-50.587-18.938-58.872s-44.819 4.64-54.691 28.87c-9.586 23.524-1.87 49.054 17.197 58.102a13.887 13.887 0 01-5.563 5.55c-4.13 1.928 9.29 3.785 9.29 3.785a23.48 23.48 0 011.268-7.433c19.624 5.752 42.086-7.053 51.437-30.002z" fill="#6c63ff"/><path d="M599.003 225.152c.454-10.46 6.77-18.763 14.325-19.133a10.759 10.759 0 00-.99-.09c-7.986-.346-14.844 8.222-15.317 19.137-.46 10.598 5.269 19.511 12.912 20.338-.136.793-11.389-9.672-10.93-20.252z" fill="#fff" opacity=".2"/></svg>